<svg width="2008" height="1088" viewBox="0 0 2008 1088" fill="none" xmlns="http://www.w3.org/2000/svg">
<rect width="2008" height="1088" fill="#F5F5F5"/>
<g filter="url(#filter0_d_61_133)">
<rect width="2000" height="1080" transform="translate(4)" fill="#F5F5F5"/>
<path d="M472.352 342.067L472.209 341.807C470.826 339.458 471.675 336.43 474.077 335.142L511.184 315.239C513.612 313.937 516.635 314.843 517.945 317.266L530.489 340.458L574 318.5L976.604 90.5803C979.005 89.2211 982.053 90.0637 983.415 92.4633L1030.92 176.152C1032.22 178.439 1035.07 179.322 1037.45 178.202C1071.95 161.956 1090.3 157.842 1129.13 155.576C1129.63 155.546 1130.14 155.442 1130.61 155.266L1163.15 143.096L1194 132.417L1321.86 88.1516L1341.07 80.8769C1343.76 79.8592 1346.75 81.3118 1347.61 84.0538L1381.91 193.18C1382.75 195.831 1381.26 198.654 1378.6 199.463L1311 220L1280.44 229.309C1277.73 230.134 1276.25 233.048 1277.17 235.728L1301.68 306.506C1302.5 308.857 1304.91 310.252 1307.36 309.779L1475.29 277.221C1477.7 276.754 1480.1 278.105 1480.94 280.41L1555.27 483.264C1556.16 485.67 1555.08 488.352 1552.78 489.477L1392.81 567.674C1390.59 568.759 1389.5 571.303 1390.23 573.661L1415.01 652.714C1415.66 654.8 1417.59 656.219 1419.78 656.219H1449.77C1452.26 656.219 1454.36 654.384 1454.78 651.934C1468.84 569.61 1541.98 509 1630.5 509C1729.08 509 1809 586.902 1809 683C1809 779.098 1729.08 857 1630.5 857C1531.92 857 1451.5 782.098 1451.5 686L1405.76 701.24C1403.17 702.112 1401.76 704.904 1402.59 707.507L1427.97 786.524L1479.3 938.813C1480.2 941.48 1478.72 944.363 1476.03 945.189L1444.61 954.846C1441.97 955.658 1439.17 954.174 1438.36 951.533L1393.63 805.722L1294.3 830.076C1291.64 830.728 1290 833.399 1290.62 836.067L1301.09 881.001C1301.73 883.726 1299.96 886.452 1297.22 887.033C1097.34 929.421 978.574 937.471 784.175 913.773L781.093 937.776C780.733 940.575 778.131 942.522 775.344 942.077L745.812 937.357C743.097 936.923 740.54 938.763 740.09 941.476L725.897 1027.01C725.441 1029.75 722.828 1031.6 720.086 1031.11L685.872 1025.01C683.093 1024.51 681.275 1021.82 681.858 1019.05L700.025 932.921L699.992 932.913L699.977 932.91C681.431 928.585 661.166 923.861 644.775 919.7C552.045 896.158 487.41 872.988 390.653 829.959C283.366 780.56 225.097 747.371 129.267 678.255C126.957 676.59 126.478 673.31 128.247 671.079L271.654 490.303C272.423 489.333 273.524 488.683 274.745 488.479L389.99 469.165C390.43 469.091 390.858 468.959 391.263 468.771L414.85 457.863L394.524 422.331C393.099 419.839 394.059 416.662 396.626 415.377L425.361 400.992C427.951 399.696 428.901 396.476 427.429 393.981L419.653 380.796C418.197 378.328 419.109 375.144 421.651 373.821L470.289 348.5C472.64 347.277 473.539 344.395 472.352 342.067Z" fill="#D9D9D9"/>
<path d="M472.209 341.807L533.428 453.38C533.973 454.504 534.919 455.383 536.079 455.845L647.75 500.263M472.209 341.807C470.826 339.458 471.675 336.43 474.077 335.142L511.184 315.239C513.612 313.937 516.635 314.843 517.945 317.266L530.489 340.458M472.209 341.807C473.604 344.176 472.728 347.231 470.289 348.5L421.651 373.821C419.109 375.144 418.197 378.328 419.653 380.796L427.429 393.981C428.901 396.476 427.951 399.696 425.361 400.992L396.626 415.377C394.059 416.662 393.099 419.839 394.524 422.331L414.85 457.863M1142.88 192.979C1097.96 195.742 1074.84 198.777 1033.23 221.246C888.825 300.694 676.083 417.891 628.223 444.259C624.419 446.354 625.03 451.906 629.141 453.306L694.144 475.443C696.708 476.316 698.11 479.071 697.307 481.658L683.117 527.366C682.287 530.038 683.812 532.871 686.5 533.651L702.469 538.282C704.625 538.907 706.084 540.896 706.138 543.14C706.506 558.68 710.532 566.026 722.815 572.274C725.002 573.386 726.223 575.833 725.611 578.209L720.857 596.679C720.148 599.432 721.875 602.222 724.656 602.815L771.152 612.729C773.875 613.31 776.548 611.554 777.096 608.823L786.072 564.133L796.058 509.981C796.543 507.35 799.013 505.567 801.663 505.936L892.125 518.499L1042.58 519.867L1159.03 504.366L1281.5 472.5M1192.18 250.424L1197.77 248.675C1200.34 247.87 1203.08 249.248 1203.98 251.79L1281.5 472.5M1281.5 472.5L1322 594M530.636 340.73L530.489 340.458M530.489 340.458L530.483 340.46M530.489 340.458L574 318.5L976.604 90.5803C979.005 89.2211 982.053 90.0637 983.415 92.4633L1030.92 176.152C1032.22 178.439 1035.07 179.322 1037.45 178.202C1071.95 161.956 1090.3 157.842 1129.13 155.576C1129.63 155.546 1130.14 155.442 1130.61 155.266L1163.15 143.096L1194 132.417M414.85 457.863L391.263 468.771C390.858 468.959 390.43 469.091 389.99 469.165L274.745 488.479C273.524 488.683 272.423 489.333 271.654 490.303L128.247 671.079C126.478 673.31 126.957 676.59 129.267 678.255C225.097 747.371 283.366 780.56 390.653 829.959C487.41 872.988 552.045 896.158 644.775 919.7M414.85 457.863L430.575 502.998M683.025 797.972L669.425 832.621L644.775 919.7M644.775 919.7C661.166 923.861 681.431 928.585 699.977 932.91L699.992 932.913L700.025 932.921M700.025 932.921L719.15 842.651M700.025 932.921L681.858 1019.05C681.275 1021.82 683.093 1024.51 685.872 1025.01L720.086 1031.11C722.828 1031.6 725.441 1029.75 725.897 1027.01L740.09 941.476C740.54 938.763 743.097 936.923 745.812 937.357L775.344 942.077C778.131 942.522 780.733 940.575 781.093 937.776L784.175 913.773M784.175 913.773C978.574 937.471 1097.34 929.421 1297.22 887.033C1299.96 886.452 1301.73 883.726 1301.09 881.001L1290.62 836.067C1290 833.399 1291.64 830.728 1294.3 830.076L1393.63 805.722M784.175 913.773L807.125 745.998M1393.63 805.722L1356.65 699.039M1393.63 805.722L1438.36 951.533C1439.17 954.174 1441.97 955.658 1444.61 954.846L1476.03 945.189C1478.72 944.363 1480.2 941.48 1479.3 938.813L1427.97 786.524L1402.59 707.507C1401.76 704.904 1403.17 702.112 1405.76 701.24L1451.5 686C1451.5 782.098 1531.92 857 1630.5 857C1729.08 857 1809 779.098 1809 683C1809 586.902 1729.08 509 1630.5 509C1541.98 509 1468.84 569.61 1454.78 651.934C1454.36 654.384 1452.26 656.219 1449.77 656.219H1419.78C1417.59 656.219 1415.66 654.8 1415.01 652.714L1390.23 573.661C1389.5 571.303 1390.59 568.759 1392.81 567.674L1552.78 489.477C1555.08 488.352 1556.16 485.67 1555.27 483.264L1480.94 280.41C1480.1 278.105 1477.7 276.754 1475.29 277.221L1307.36 309.779C1304.91 310.252 1302.5 308.857 1301.68 306.506L1277.17 235.728C1276.25 233.048 1277.73 230.134 1280.44 229.309L1311 220M1194 132.417L1321.86 88.1516L1341.07 80.8769C1343.76 79.8592 1346.75 81.3118 1347.61 84.0538L1381.91 193.18C1382.75 195.831 1381.26 198.654 1378.6 199.463L1311 220M1194 132.417L1207 174L1253.5 159.5L1264.5 195L1299.5 183L1311 220M1295.5 628.5L1306.5 669C1259.28 681.613 1232.61 686.193 1181 696.5L1175 656.5C1222.39 645.437 1250.39 640.18 1295.5 628.5ZM1148.5 660.5L1154 701.5C1062.12 716.909 1012.06 720.983 920 717.5L921.5 677C1010.7 679.485 1060.41 674.694 1148.5 660.5ZM893.5 675.5L891 715L798 704.5L802.5 666L893.5 675.5Z" stroke="#626262" stroke-width="5"/>
<path d="M472.209 341.807L533.428 453.38C533.973 454.504 534.919 455.383 536.079 455.845L647.75 500.263M472.209 341.807C470.826 339.458 471.675 336.43 474.077 335.142L511.184 315.239C513.612 313.937 516.635 314.843 517.945 317.266L530.489 340.458M472.209 341.807C473.604 344.176 472.728 347.231 470.289 348.5L421.651 373.821C419.109 375.144 418.197 378.328 419.653 380.796L427.429 393.981C428.901 396.476 427.951 399.696 425.361 400.992L396.626 415.377C394.059 416.662 393.099 419.839 394.524 422.331L414.85 457.863M1142.88 192.979C1097.96 195.742 1074.84 198.777 1033.23 221.246C888.825 300.694 676.083 417.891 628.223 444.259C624.419 446.354 625.03 451.906 629.141 453.306L694.144 475.443C696.708 476.316 698.11 479.071 697.307 481.658L683.117 527.366C682.287 530.038 683.812 532.871 686.5 533.651L702.469 538.282C704.625 538.907 706.084 540.896 706.138 543.14C706.506 558.68 710.532 566.026 722.815 572.274C725.002 573.386 726.223 575.833 725.611 578.209L720.857 596.679C720.148 599.432 721.875 602.222 724.656 602.815L771.152 612.729C773.875 613.31 776.548 611.554 777.096 608.823L786.072 564.133L796.058 509.981C796.543 507.35 799.013 505.567 801.663 505.936L892.125 518.499L1042.58 519.867L1159.03 504.366L1281.5 472.5M1192.18 250.424L1197.77 248.675C1200.34 247.87 1203.08 249.248 1203.98 251.79L1281.5 472.5M1281.5 472.5L1322 594M530.636 340.73L530.489 340.458M530.489 340.458L530.483 340.46M530.489 340.458L574 318.5L976.604 90.5803C979.005 89.2211 982.053 90.0637 983.415 92.4633L1030.92 176.152C1032.22 178.439 1035.07 179.322 1037.45 178.202C1071.95 161.956 1090.3 157.842 1129.13 155.576C1129.63 155.546 1130.14 155.442 1130.61 155.266L1163.15 143.096L1194 132.417M414.85 457.863L391.263 468.771C390.858 468.959 390.43 469.091 389.99 469.165L274.745 488.479C273.524 488.683 272.423 489.333 271.654 490.303L128.247 671.079C126.478 673.31 126.957 676.59 129.267 678.255C225.097 747.371 283.366 780.56 390.653 829.959C487.41 872.988 552.045 896.158 644.775 919.7M414.85 457.863L430.575 502.998M683.025 797.972L669.425 832.621L644.775 919.7M644.775 919.7C661.166 923.861 681.431 928.585 699.977 932.91L699.992 932.913L700.025 932.921M700.025 932.921L719.15 842.651M700.025 932.921L681.858 1019.05C681.275 1021.82 683.093 1024.51 685.872 1025.01L720.086 1031.11C722.828 1031.6 725.441 1029.75 725.897 1027.01L740.09 941.476C740.54 938.763 743.097 936.923 745.812 937.357L775.344 942.077C778.131 942.522 780.733 940.575 781.093 937.776L784.175 913.773M784.175 913.773C978.574 937.471 1097.34 929.421 1297.22 887.033C1299.96 886.452 1301.73 883.726 1301.09 881.001L1290.62 836.067C1290 833.399 1291.64 830.728 1294.3 830.076L1393.63 805.722M784.175 913.773L807.125 745.998M1393.63 805.722L1356.65 699.039M1393.63 805.722L1438.36 951.533C1439.17 954.174 1441.97 955.658 1444.61 954.846L1476.03 945.189C1478.72 944.363 1480.2 941.48 1479.3 938.813L1427.97 786.524L1402.59 707.507C1401.76 704.904 1403.17 702.112 1405.76 701.24L1451.5 686C1451.5 782.098 1531.92 857 1630.5 857C1729.08 857 1809 779.098 1809 683C1809 586.902 1729.08 509 1630.5 509C1541.98 509 1468.84 569.61 1454.78 651.934C1454.36 654.384 1452.26 656.219 1449.77 656.219H1419.78C1417.59 656.219 1415.66 654.8 1415.01 652.714L1390.23 573.661C1389.5 571.303 1390.59 568.759 1392.81 567.674L1552.78 489.477C1555.08 488.352 1556.16 485.67 1555.27 483.264L1480.94 280.41C1480.1 278.105 1477.7 276.754 1475.29 277.221L1307.36 309.779C1304.91 310.252 1302.5 308.857 1301.68 306.506L1277.17 235.728C1276.25 233.048 1277.73 230.134 1280.44 229.309L1311 220M1194 132.417L1321.86 88.1516L1341.07 80.8769C1343.76 79.8592 1346.75 81.3118 1347.61 84.0538L1381.91 193.18C1382.75 195.831 1381.26 198.654 1378.6 199.463L1311 220M1194 132.417L1207 174L1253.5 159.5L1264.5 195L1299.5 183L1311 220M1295.5 628.5L1306.5 669C1259.28 681.613 1232.61 686.193 1181 696.5L1175 656.5C1222.39 645.437 1250.39 640.18 1295.5 628.5ZM1148.5 660.5L1154 701.5C1062.12 716.909 1012.06 720.983 920 717.5L921.5 677C1010.7 679.485 1060.41 674.694 1148.5 660.5ZM893.5 675.5L891 715L798 704.5L802.5 666L893.5 675.5Z" stroke="#626262" stroke-width="5"/>
<path d="M1552.72 656.92C1554.77 656.92 1556.4 657.507 1557.62 658.68C1558.83 659.832 1559.44 661.421 1559.44 663.448C1559.44 665.475 1558.67 667.213 1557.14 668.664C1555.6 670.093 1553.73 670.808 1551.51 670.808H1549.68L1550.07 679H1545.78L1546.16 671.224L1545.78 656.92H1552.72ZM1551.57 660.152H1550L1549.78 667.704H1551.95C1553.02 667.704 1553.84 667.352 1554.42 666.648C1555.02 665.944 1555.31 664.941 1555.31 663.64C1555.31 661.315 1554.07 660.152 1551.57 660.152ZM1562.06 679L1562.44 671.224L1562.06 656.92H1574.06L1573.71 660.344H1566.51L1566.32 666.008H1572.72L1572.36 669.4H1566.19L1566.16 670.68L1566.38 675.608H1574.12L1573.77 679H1562.06ZM1577.87 679.32C1577 679.32 1576.12 679.224 1575.25 679.032L1576.27 675.192C1576.98 675.427 1577.66 675.544 1578.32 675.544C1579.62 675.544 1580.27 674.467 1580.27 672.312L1579.83 657.56L1584.37 656.76L1583.92 671.192C1583.92 673.517 1583.36 675.459 1582.23 677.016C1581.1 678.552 1579.64 679.32 1577.87 679.32ZM1602.02 679.16L1600.45 672.92H1592.8L1591.11 679L1587.01 678.68L1589.83 670.904L1594.12 657.144L1599.84 656.728L1603.97 670.424L1606.63 678.456L1602.02 679.16ZM1596.96 660.888H1596.55L1593.8 669.528H1599.49L1596.96 660.888ZM1616.6 656.92C1618.65 656.92 1620.27 657.389 1621.46 658.328C1622.66 659.245 1623.25 660.483 1623.25 662.04C1623.25 664.536 1622.23 666.275 1620.18 667.256C1622.96 668.216 1624.34 669.987 1624.34 672.568C1624.34 674.509 1623.51 676.131 1621.85 677.432C1620.18 678.712 1618.09 679.352 1615.57 679.352C1614.25 679.352 1612.28 679.235 1609.65 679L1610.04 671.224L1609.65 656.92H1616.6ZM1616.18 669.496H1613.59L1613.56 670.68L1613.78 675.896C1615.02 676.003 1615.97 676.056 1616.63 676.056C1617.76 676.056 1618.64 675.779 1619.25 675.224C1619.89 674.648 1620.21 673.816 1620.21 672.728C1620.21 671.64 1619.89 670.829 1619.25 670.296C1618.61 669.763 1617.59 669.496 1616.18 669.496ZM1615.45 660.152H1613.88L1613.69 666.392H1615.77C1616.85 666.392 1617.69 666.104 1618.26 665.528C1618.84 664.931 1619.13 664.088 1619.13 663C1619.13 661.101 1617.9 660.152 1615.45 660.152ZM1641.14 679.16L1639.58 672.92H1631.93L1630.23 679L1626.14 678.68L1628.95 670.904L1633.24 657.144L1638.97 656.728L1643.1 670.424L1645.75 678.456L1641.14 679.16ZM1636.09 660.888H1635.67L1632.92 669.528H1638.62L1636.09 660.888ZM1646.22 660.6L1646.57 656.92H1661.77L1661.42 660.6L1655.85 660.12L1655.72 670.68L1656.11 679H1651.63L1652.01 671.224L1651.88 660.152L1646.22 660.6ZM1686.24 656.76L1685.79 670.68L1686.17 679H1681.69L1682.08 671.224L1682.01 669.528H1673.41L1673.37 670.68L1673.76 679H1669.28L1669.66 671.224L1669.28 657.56L1673.82 656.76L1673.5 666.136H1681.92L1681.69 657.56L1686.24 656.76ZM1691.37 679L1691.76 671.224L1691.37 656.92H1703.37L1703.02 660.344H1695.82L1695.63 666.008H1702.03L1701.68 669.4H1695.5L1695.47 670.68L1695.69 675.608H1703.44L1703.08 679H1691.37ZM1714.07 656.92C1716.11 656.92 1717.75 657.507 1718.96 658.68C1720.18 659.832 1720.79 661.421 1720.79 663.448C1720.79 665.475 1720.02 667.213 1718.48 668.664C1716.95 670.093 1715.07 670.808 1712.85 670.808H1711.03L1711.41 679H1707.12L1707.51 671.224L1707.12 656.92H1714.07ZM1712.91 660.152H1711.35L1711.12 667.704H1713.3C1714.37 667.704 1715.19 667.352 1715.76 666.648C1716.36 665.944 1716.66 664.941 1716.66 663.64C1716.66 661.315 1715.41 660.152 1712.91 660.152ZM1573.34 720.352C1571.82 720.352 1569.64 720.235 1566.78 720L1567.16 712.224L1566.78 697.92H1575.32C1578.2 697.92 1580.45 698.784 1582.07 700.512C1583.7 702.24 1584.51 704.64 1584.51 707.712C1584.51 711.595 1583.5 714.677 1581.5 716.96C1579.49 719.221 1576.77 720.352 1573.34 720.352ZM1574.17 701.376C1572.76 701.376 1571.77 701.387 1571.19 701.408L1570.87 711.68L1571.1 716.864C1572.89 716.992 1574.1 717.056 1574.71 717.056C1576.4 717.056 1577.72 716.373 1578.68 715.008C1579.66 713.643 1580.15 711.659 1580.15 709.056C1580.15 706.453 1579.67 704.523 1578.71 703.264C1577.78 702.005 1576.26 701.376 1574.17 701.376ZM1600.96 720.16L1599.39 713.92H1591.74L1590.04 720L1585.95 719.68L1588.76 711.904L1593.05 698.144L1598.78 697.728L1602.91 711.424L1605.56 719.456L1600.96 720.16ZM1595.9 701.888H1595.48L1592.73 710.528H1598.43L1595.9 701.888ZM1625.52 697.856L1625.1 711.68L1625.46 719.296L1621.68 720.096L1612.14 704.672V711.68L1612.59 720H1608.59L1608.98 712.224L1608.59 698.016L1612.43 697.824L1621.94 713.472L1621.62 698.336L1625.52 697.856ZM1640.14 697.76L1639.69 711.68L1640.07 720H1635.59L1635.98 712.224L1635.59 698.56L1640.14 697.76ZM1652.06 720.352C1649.7 720.352 1647.7 719.36 1646.08 717.376C1644.46 715.392 1643.65 712.96 1643.65 710.08C1643.65 706.56 1644.62 703.595 1646.56 701.184C1648.52 698.773 1650.92 697.568 1653.76 697.568C1654.87 697.568 1655.89 697.685 1656.83 697.92C1657.79 698.133 1658.47 698.357 1658.88 698.592L1659.46 698.944L1657.28 703.392C1656.79 702.965 1656.1 702.571 1655.2 702.208C1654.3 701.824 1653.49 701.632 1652.77 701.632C1651.3 701.632 1650.11 702.24 1649.22 703.456C1648.34 704.672 1647.9 706.411 1647.9 708.672C1647.9 710.912 1648.36 712.757 1649.28 714.208C1650.2 715.637 1651.44 716.352 1653.02 716.352C1654.05 716.352 1654.98 716.032 1655.81 715.392C1656.64 714.752 1657.23 713.899 1657.57 712.832L1660.22 714.368C1659.52 716.245 1658.44 717.717 1656.99 718.784C1655.54 719.829 1653.9 720.352 1652.06 720.352ZM1675.8 720.16L1674.23 713.92H1666.58L1664.89 720L1660.79 719.68L1663.61 711.904L1667.9 698.144L1673.62 697.728L1677.75 711.424L1680.41 719.456L1675.8 720.16ZM1670.74 701.888H1670.33L1667.58 710.528H1673.27L1670.74 701.888ZM1692.72 710.016H1693.04L1697.71 697.856L1702.12 697.984L1702.25 711.744L1702.86 720H1698.54L1698.7 711.68L1698.35 703.264L1694.51 713.856L1690.57 714.048L1686.99 703.264L1686.7 711.68L1686.92 720H1682.96L1683.4 712.224L1683.6 698.496L1688.68 697.696L1692.72 710.016Z" fill="black"/>
<path d="M1618.61 513.365V589.043C1590.55 591.226 1567.04 605.728 1551.46 626.695C1544.73 635.748 1539.49 646.007 1536 657H1458C1461.92 629.615 1472.12 604.614 1487.2 583.414C1516.22 542.604 1563.34 515.882 1618.61 513.365Z" fill="#06B300"/>
<path d="M1644.88 589.499V513.5C1736.08 519.101 1805 592.826 1805 683.399C1805 718.276 1794.16 750.778 1775.61 777.883C1744.05 824.001 1690.19 854.497 1629.49 854.497C1533.12 854.497 1455 778.117 1455 683.896H1455.45H1532.35C1532.35 705.574 1539.74 725.564 1552.19 741.592C1564.71 757.719 1582.35 769.834 1602.75 775.622C1611.4 778.077 1620.55 779.393 1630.01 779.393C1683.95 779.393 1727.67 736.638 1727.67 683.896C1727.67 681.044 1727.55 678.223 1727.33 675.438C1725.68 654.991 1718.09 636.482 1706.02 621.88C1691.37 604.164 1670.13 592.199 1644.88 589.499Z" fill="#06B300"/>
<path d="M1764.35 573.936L1705 622.718M1727.29 675.441L1804.54 670.964M1775.75 777.978L1711.94 735.883M1688.51 844.349L1663.22 773.728M1582.42 847.44L1602.75 775.622M1492.53 787.849L1552.19 741.592M1551.69 626.848L1486.58 583M1455 683.896C1455 778.117 1533.12 854.497 1629.49 854.497C1725.86 854.497 1805 777.619 1805 683.399C1805 592.826 1736.08 519.101 1644.88 513.5V589.499C1693.77 594.727 1727.67 634.703 1727.67 683.896C1727.67 736.638 1683.95 779.393 1630.01 779.393C1576.08 779.393 1532.35 736.638 1532.35 683.896M1455 683.896C1455 684 1455.5 685.896 1455.5 682.5M1455 683.896H1532.35M1532.35 683.896C1532.35 683.73 1532.35 682.57 1532.35 682.404M1618.61 513.365V589.043C1578.44 592.169 1547.57 620.55 1536 657H1458C1469.47 576.9 1534.62 517.189 1618.61 513.365Z" stroke="#F5F5F5" stroke-width="3"/>
<path d="M1435.26 289.022L1303.5 314.5L1387 566L1506.5 506L1435.26 289.022Z" fill="#06B300" stroke="#F5F5F5" stroke-width="3" stroke-linecap="round"/>
<path d="M1370.44 404.724C1368.48 405.442 1366.67 405.351 1365.04 404.449C1363.41 403.547 1362.23 401.992 1361.52 399.784C1360.71 397.27 1360.78 394.879 1361.73 392.61C1362.68 390.341 1364.25 388.806 1366.45 388.006C1367.32 387.688 1368.15 387.478 1368.94 387.377C1369.74 387.255 1370.33 387.221 1370.7 387.273L1371.23 387.36L1370.94 391.013C1370.4 390.872 1369.7 390.813 1368.85 390.833C1367.99 390.839 1367.27 390.948 1366.68 391.162C1365.47 391.606 1364.63 392.396 1364.17 393.533C1363.72 394.67 1363.72 395.954 1364.18 397.386C1364.8 399.32 1365.63 400.702 1366.67 401.531C1367.73 402.355 1368.88 402.539 1370.12 402.084C1370.94 401.788 1371.67 401.394 1372.31 400.903L1371.17 397.362L1368.27 398.422L1367.75 396.033L1373.16 394.059L1374.15 397.857L1375.58 401.752C1373.59 403.213 1371.87 404.204 1370.44 404.724ZM1379.26 401.227L1377.75 395.577L1374.34 385.92L1377.36 384.182L1380.24 394.235L1381.59 397.878L1386.09 395.827L1386.68 398.522L1379.26 401.227ZM1390.03 379.432C1391.8 378.785 1393.48 378.938 1395.07 379.893C1396.67 380.841 1397.81 382.374 1398.49 384.491C1399.35 387.172 1399.36 389.584 1398.52 391.728C1397.68 393.871 1396.15 395.349 1393.93 396.16C1392.2 396.791 1390.52 396.619 1388.9 395.645C1387.27 394.657 1386.12 393.126 1385.46 391.055C1384.62 388.466 1384.64 386.079 1385.5 383.893C1386.35 381.708 1387.87 380.221 1390.03 379.432ZM1395.83 386.889C1394.59 383.035 1392.72 381.564 1390.23 382.474C1389.09 382.89 1388.32 383.653 1387.94 384.763C1387.57 385.851 1387.66 387.256 1388.22 388.977C1388.76 390.683 1389.56 391.966 1390.61 392.826C1391.67 393.664 1392.77 393.876 1393.92 393.459C1395.07 393.037 1395.81 392.249 1396.13 391.095C1396.45 389.921 1396.36 388.519 1395.83 386.889ZM1403.59 374.742C1405.03 374.216 1406.28 374.134 1407.34 374.497C1408.39 374.845 1409.1 375.575 1409.46 376.687C1410.03 378.469 1409.71 379.973 1408.49 381.2C1410.67 381.173 1412.05 382.081 1412.64 383.924C1413.09 385.31 1412.87 386.681 1412 388.038C1411.12 389.379 1409.8 390.373 1408.02 391.02C1407.09 391.36 1405.67 391.783 1403.77 392.29L1402.26 386.64L1398.7 376.526L1403.59 374.742ZM1406.19 383.827L1404.36 384.493L1404.61 385.347L1405.97 389.013C1406.86 388.771 1407.54 388.566 1408.01 388.396C1408.81 388.105 1409.36 387.682 1409.67 387.127C1409.99 386.552 1410.02 385.875 1409.77 385.099C1409.52 384.322 1409.11 383.825 1408.54 383.609C1407.96 383.393 1407.18 383.465 1406.19 383.827ZM1403.52 377.345L1402.42 377.748L1403.72 382.253L1405.18 381.718C1405.95 381.439 1406.47 381.019 1406.74 380.46C1407.01 379.885 1407.02 379.21 1406.77 378.433C1406.33 377.078 1405.25 376.715 1403.52 377.345ZM1426 384.313L1423.46 380.26L1418.07 382.226L1418.27 387.002L1415.31 387.826L1415.51 381.551L1415.37 370.625L1419.31 368.857L1425.36 377.574L1429.08 382.626L1426 384.313ZM1418.24 372.567L1417.94 372.674L1417.99 379.549L1422 378.085L1418.24 372.567ZM1431.34 382.237L1429.82 376.586L1426.41 366.93L1429.43 365.191L1432.31 375.244L1433.66 378.888L1438.17 376.836L1438.76 379.531L1431.34 382.237ZM1360.15 440.107L1358.63 434.457L1355.22 424.8L1358.24 423.062L1361.12 433.115L1362.47 436.758L1366.98 434.707L1367.57 437.402L1360.15 440.107ZM1369.75 436.606L1368.23 430.956L1364.68 420.842L1373.13 417.759L1373.67 420.294L1368.6 422.144L1369.76 426.237L1374.27 424.593L1374.8 427.105L1370.45 428.692L1370.72 429.614L1372.01 433.074L1377.47 431.085L1378 433.597L1369.75 436.606ZM1389.99 429.351L1387.45 425.299L1382.07 427.265L1382.27 432.041L1379.31 432.865L1379.51 426.59L1379.37 415.664L1383.31 413.895L1389.36 422.613L1393.08 427.665L1389.99 429.351ZM1382.23 417.605L1381.94 417.712L1381.99 424.588L1386 423.124L1382.23 417.605ZM1397.42 419.727L1396.13 420.195L1396.17 420.332L1398.36 426.174L1395.34 427.275L1393.82 421.625L1390.26 411.512L1395.16 409.727C1396.6 409.201 1397.88 409.178 1398.99 409.657C1400.1 410.137 1400.87 411.032 1401.29 412.341C1401.61 413.331 1401.64 414.331 1401.4 415.34C1401.16 416.328 1400.69 417.214 1399.98 417.999L1405.72 422.188L1403.44 424.6L1397.88 419.531C1397.78 419.585 1397.63 419.65 1397.42 419.727ZM1395.09 412.331L1393.98 412.734L1395.48 417.955L1397.02 417.395C1397.77 417.121 1398.27 416.659 1398.51 416.008C1398.77 415.352 1398.75 414.56 1398.45 413.631C1397.97 412.123 1396.84 411.689 1395.09 412.331ZM1415.23 402.355L1418.12 412.331L1420.11 417.678L1417.64 419.219L1407.37 410.658L1408.98 415.661L1411.21 421.486L1408.39 422.514L1406.88 416.863L1403.34 406.819L1406 405.695L1416.3 414.424L1412.59 403.7L1415.23 402.355ZM1422.03 399.799L1424.91 409.852L1427.09 415.693L1423.94 416.845L1422.42 411.194L1419.01 401.538L1422.03 399.799ZM1437.58 394.204L1440.46 404.181L1442.46 409.528L1439.99 411.069L1429.72 402.507L1431.33 407.511L1433.56 413.336L1430.74 414.363L1429.23 408.713L1425.69 398.668L1428.35 397.544L1438.64 406.274L1434.94 395.55L1437.58 394.204ZM1451.8 406.964C1449.83 407.682 1448.03 407.59 1446.4 406.689C1444.76 405.787 1443.59 404.232 1442.88 402.023C1442.07 399.51 1442.14 397.119 1443.09 394.85C1444.04 392.58 1445.61 391.046 1447.81 390.245C1448.68 389.927 1449.51 389.718 1450.3 389.617C1451.1 389.495 1451.69 389.46 1452.06 389.513L1452.59 389.6L1452.3 393.252C1451.75 393.112 1451.05 393.052 1450.2 393.073C1449.35 393.078 1448.63 393.188 1448.04 393.402C1446.82 393.846 1445.99 394.636 1445.53 395.773C1445.07 396.91 1445.07 398.194 1445.54 399.626C1446.16 401.56 1446.99 402.942 1448.03 403.771C1449.08 404.595 1450.23 404.779 1451.48 404.324C1452.29 404.028 1453.02 403.634 1453.67 403.143L1452.53 399.601L1449.62 400.662L1449.11 398.272L1454.52 396.299L1455.51 400.097L1456.94 403.992C1454.94 405.452 1453.23 406.443 1451.8 406.964ZM1389.69 456.163C1391.39 456.991 1392.87 457.173 1394.15 456.707C1394.81 456.466 1395.29 456.121 1395.58 455.674C1395.88 455.206 1395.96 454.729 1395.8 454.241C1395.64 453.739 1395.26 453.408 1394.67 453.248C1394.08 453.073 1393.4 452.982 1392.62 452.976C1391.86 452.963 1391.09 452.921 1390.31 452.847C1389.53 452.759 1388.8 452.498 1388.12 452.064C1387.44 451.63 1386.97 450.979 1386.69 450.111C1386.25 448.74 1386.43 447.354 1387.24 445.953C1388.04 444.537 1389.22 443.546 1390.77 442.982C1391.47 442.724 1392.18 442.551 1392.89 442.462C1393.6 442.373 1394.31 442.361 1395.02 442.426L1394.56 446.32C1394.03 446.139 1393.36 446.045 1392.53 446.04C1391.72 446.013 1391.03 446.102 1390.47 446.304C1389.93 446.502 1389.53 446.801 1389.28 447.201C1389.03 447.58 1388.98 447.991 1389.12 448.433C1389.26 448.874 1389.63 449.183 1390.22 449.358C1390.81 449.517 1391.49 449.603 1392.25 449.615C1393.02 449.622 1393.8 449.662 1394.58 449.735C1395.37 449.788 1396.1 450.031 1396.78 450.465C1397.45 450.898 1397.93 451.549 1398.21 452.418C1398.67 453.849 1398.51 455.311 1397.73 456.804C1396.95 458.281 1395.81 459.294 1394.3 459.842C1393.18 460.253 1392.09 460.344 1391.04 460.113C1390.12 459.921 1389.44 459.699 1389.01 459.449L1388.73 459.271L1389.69 456.163ZM1402.07 439.116C1403.51 438.59 1404.79 438.589 1405.92 439.115C1407.04 439.625 1407.84 440.603 1408.3 442.05C1408.77 443.497 1408.63 444.935 1407.88 446.366C1407.12 447.781 1405.96 448.774 1404.4 449.344L1403.12 449.812L1405.27 455.562L1402.25 456.664L1400.73 451.014L1397.17 440.9L1402.07 439.116ZM1402 441.719L1400.89 442.122L1402.47 447.572L1404 447.012C1404.75 446.738 1405.25 446.276 1405.5 445.625C1405.76 444.969 1405.74 444.177 1405.44 443.248C1404.9 441.588 1403.76 441.078 1402 441.719ZM1422.86 449.273L1420.33 445.221L1414.94 447.186L1415.14 451.963L1412.18 452.787L1412.38 446.511L1412.24 435.586L1416.18 433.817L1422.23 442.534L1425.95 447.586L1422.86 449.273ZM1415.1 437.527L1414.81 437.634L1414.86 444.509L1418.87 443.046L1415.1 437.527ZM1433.09 445.697C1431.42 446.305 1429.79 446.11 1428.19 445.11C1426.59 444.11 1425.46 442.582 1424.8 440.526C1423.99 438.013 1423.99 435.646 1424.81 433.426C1425.64 431.201 1427.05 429.724 1429.05 428.995C1429.83 428.71 1430.58 428.53 1431.3 428.457C1432.02 428.362 1432.55 428.347 1432.89 428.41L1433.38 428.513L1432.87 432.248C1432.43 432.07 1431.85 431.966 1431.13 431.937C1430.41 431.893 1429.8 431.965 1429.29 432.151C1428.25 432.529 1427.55 433.268 1427.2 434.366C1426.87 435.459 1426.96 436.812 1427.48 438.427C1427.99 440.026 1428.74 441.226 1429.72 442.026C1430.69 442.81 1431.74 443 1432.85 442.594C1433.57 442.331 1434.15 441.864 1434.59 441.194C1435.03 440.523 1435.25 439.763 1435.24 438.914L1437.47 439.328C1437.4 440.849 1436.98 442.177 1436.2 443.311C1435.42 444.43 1434.38 445.225 1433.09 445.697ZM1440.63 442.668L1439.11 437.018L1435.55 426.904L1444.01 423.821L1444.55 426.356L1439.47 428.206L1440.64 432.299L1445.15 430.654L1445.68 433.167L1441.33 434.754L1441.6 435.676L1442.89 439.136L1448.35 437.146L1448.88 439.659L1440.63 442.668Z" fill="black"/>
<path d="M639.09 601.754L536.307 552.001L408.225 815.77L447.756 835.514L643.834 829.986L652.531 797.607H684.156L709.456 710.737L639.09 601.754Z" fill="#05F7FF" stroke="#F5F5F5" stroke-width="3" stroke-linecap="round"/>
<path d="M539.68 740.528C537.408 740.528 534.128 740.352 529.84 740L530.416 728.336L529.84 706.88H542.656C546.976 706.88 550.352 708.176 552.784 710.768C555.216 713.36 556.432 716.96 556.432 721.568C556.432 727.392 554.928 732.016 551.92 735.44C548.912 738.832 544.832 740.528 539.68 740.528ZM540.928 712.064C538.816 712.064 537.328 712.08 536.464 712.112L535.984 727.52L536.32 735.296C539.008 735.488 540.816 735.584 541.744 735.584C544.272 735.584 546.256 734.56 547.696 732.512C549.168 730.464 549.904 727.488 549.904 723.584C549.904 719.68 549.184 716.784 547.744 714.896C546.336 713.008 544.064 712.064 540.928 712.064ZM568.531 706.64L568.003 722.288L580.243 706.736L585.139 710L574.099 722.816L585.811 736.688L579.667 740.528L567.955 723.968L567.859 727.52L568.435 740H561.715L562.291 728.336L561.715 707.84L568.531 706.64ZM607.959 717.584C607.959 715.792 606.871 714.896 604.695 714.896C603.351 714.896 601.863 715.184 600.231 715.76C598.631 716.304 597.351 716.864 596.391 717.44L594.999 718.256L596.295 711.392C597.543 710.72 599.047 710.128 600.807 709.616C602.567 709.072 604.119 708.8 605.463 708.8C608.183 708.8 610.359 709.504 611.991 710.912C613.655 712.288 614.487 714.128 614.487 716.432C614.487 719.536 612.855 722.768 609.591 726.128L601.239 734.768L616.215 733.904L615.399 740.288L605.415 739.856L594.087 740.192L594.855 735.152L604.935 723.536C606.951 721.264 607.959 719.28 607.959 717.584Z" fill="black"/>
<path d="M225.588 623.867L296.745 521.202L431.944 502.248L535.517 552.001L409.806 814.981L368.693 797.607L225.588 623.867Z" fill="#05F7FF" stroke="#F5F5F5" stroke-width="3" stroke-linecap="round"/>
<path d="M355.68 636.528C353.408 636.528 350.128 636.352 345.84 636L346.416 624.336L345.84 602.88H358.656C362.976 602.88 366.352 604.176 368.784 606.768C371.216 609.36 372.432 612.96 372.432 617.568C372.432 623.392 370.928 628.016 367.92 631.44C364.912 634.832 360.832 636.528 355.68 636.528ZM356.928 608.064C354.816 608.064 353.328 608.08 352.464 608.112L351.984 623.52L352.32 631.296C355.008 631.488 356.816 631.584 357.744 631.584C360.272 631.584 362.256 630.56 363.696 628.512C365.168 626.464 365.904 623.488 365.904 619.584C365.904 615.68 365.184 612.784 363.744 610.896C362.336 609.008 360.064 608.064 356.928 608.064ZM384.531 602.64L384.003 618.288L396.243 602.736L401.139 606L390.099 618.816L401.811 632.688L395.667 636.528L383.955 619.968L383.859 623.52L384.435 636H377.715L378.291 624.336L377.715 603.84L384.531 602.64ZM411.959 606.24C414.647 605.28 417.319 604.8 419.975 604.8C422.631 604.8 424.807 605.472 426.503 606.816C428.199 608.16 429.047 609.856 429.047 611.904C429.047 613.504 428.631 614.912 427.799 616.128C426.967 617.312 425.783 618.208 424.247 618.816C426.487 619.648 428.103 620.688 429.095 621.936C430.087 623.152 430.583 624.704 430.583 626.592C430.583 629.472 429.463 631.856 427.223 633.744C425.015 635.6 422.199 636.528 418.775 636.528C417.143 636.528 415.543 636.32 413.975 635.904C412.439 635.456 411.303 635.008 410.567 634.56L409.463 633.888L411.479 628.08C411.767 628.336 412.151 628.656 412.631 629.04C413.111 629.424 414.023 629.952 415.367 630.624C416.743 631.264 418.119 631.584 419.495 631.584C420.871 631.584 422.071 631.216 423.095 630.48C424.119 629.712 424.631 628.64 424.631 627.264C424.631 625.888 424.023 624.752 422.807 623.856C421.623 622.96 419.975 622.512 417.863 622.512H413.735L414.599 617.856H417.239C418.999 617.856 420.375 617.456 421.367 616.656C422.359 615.856 422.855 614.832 422.855 613.584C422.855 612.336 422.439 611.376 421.607 610.704C420.775 610 419.767 609.648 418.583 609.648C417.431 609.648 416.231 609.856 414.983 610.272C413.767 610.656 412.423 611.248 410.951 612.048L411.959 606.24Z" fill="black"/>
<path d="M1304.8 217.156L1296.11 189.516L1266.06 199.782L1273.97 226.633L1304.8 217.156Z" fill="#9800E4" stroke="#F5F5F5" stroke-width="5" stroke-linecap="round"/>
<path d="M1276.32 207.869L1275.7 205.519L1274.27 201.49L1275.55 200.819L1276.75 205.003L1277.31 206.524L1279.21 205.746L1279.46 206.864L1276.32 207.869ZM1279.61 199.519L1280.8 203.703L1281.71 206.142L1280.38 206.569L1279.75 204.219L1278.33 200.19L1279.61 199.519ZM1284.81 199.026L1282.78 199.676L1283.29 201.446L1285.11 200.863L1285.33 201.906L1283.58 202.464L1283.68 202.782L1284.59 205.22L1283.25 205.648L1282.62 203.298L1281.14 199.079L1284.59 197.973L1284.81 199.026ZM1284.94 199.067L1284.7 197.939L1289.22 196.488L1289.47 197.617L1287.76 198.005L1288.74 201.159L1289.65 203.598L1288.31 204.025L1287.68 201.675L1286.59 198.393L1284.94 199.067ZM1282.36 219.7C1281.66 219.926 1280.97 219.821 1280.3 219.386C1279.63 218.95 1279.15 218.304 1278.88 217.447C1278.54 216.4 1278.55 215.425 1278.89 214.522C1279.25 213.618 1279.85 213.03 1280.69 212.76C1281.02 212.654 1281.34 212.591 1281.64 212.571C1281.94 212.543 1282.17 212.545 1282.31 212.576L1282.52 212.625L1282.29 214.156C1282.11 214.076 1281.86 214.025 1281.56 214.003C1281.26 213.974 1281 213.994 1280.78 214.063C1280.35 214.204 1280.05 214.498 1279.9 214.945C1279.76 215.39 1279.79 215.949 1280.01 216.622C1280.22 217.288 1280.54 217.794 1280.95 218.138C1281.36 218.475 1281.8 218.569 1282.27 218.418C1282.57 218.321 1282.82 218.137 1283 217.867C1283.19 217.597 1283.28 217.287 1283.28 216.938L1284.22 217.141C1284.19 217.767 1284.01 218.308 1283.68 218.763C1283.35 219.213 1282.91 219.525 1282.36 219.7ZM1285.04 216.636C1285.76 217.002 1286.38 217.099 1286.92 216.926C1287.2 216.836 1287.4 216.702 1287.53 216.522C1287.66 216.334 1287.69 216.138 1287.62 215.935C1287.55 215.725 1287.4 215.583 1287.15 215.509C1286.9 215.428 1286.61 215.38 1286.28 215.366C1285.96 215.35 1285.64 215.321 1285.31 215.279C1284.98 215.231 1284.67 215.113 1284.39 214.924C1284.1 214.735 1283.9 214.46 1283.79 214.098C1283.6 213.527 1283.68 212.959 1284.03 212.394C1284.37 211.822 1284.87 211.431 1285.52 211.222C1285.82 211.126 1286.12 211.065 1286.42 211.039C1286.72 211.013 1287.02 211.019 1287.31 211.056L1287.11 212.653C1286.89 212.571 1286.61 212.522 1286.26 212.508C1285.91 212.485 1285.63 212.511 1285.39 212.586C1285.16 212.66 1284.99 212.777 1284.88 212.938C1284.78 213.09 1284.76 213.259 1284.82 213.443C1284.87 213.627 1285.03 213.759 1285.28 213.84C1285.53 213.915 1285.81 213.96 1286.13 213.976C1286.46 213.991 1286.79 214.019 1287.11 214.06C1287.45 214.094 1287.76 214.205 1288.04 214.393C1288.33 214.582 1288.53 214.857 1288.64 215.219C1288.83 215.816 1288.76 216.416 1288.43 217.019C1288.1 217.616 1287.62 218.016 1286.98 218.22C1286.5 218.372 1286.05 218.394 1285.6 218.283C1285.22 218.19 1284.93 218.089 1284.75 217.979L1284.63 217.902L1285.04 216.636ZM1291.11 211.877C1290.99 211.522 1290.72 211.413 1290.29 211.552C1290.02 211.637 1289.74 211.789 1289.46 212.007C1289.18 212.216 1288.96 212.409 1288.8 212.584L1288.58 212.835L1288.4 211.391C1288.6 211.178 1288.86 210.965 1289.18 210.752C1289.49 210.532 1289.79 210.379 1290.05 210.294C1290.59 210.121 1291.07 210.122 1291.48 210.297C1291.9 210.464 1292.18 210.776 1292.33 211.233C1292.53 211.849 1292.41 212.594 1291.98 213.468L1290.87 215.713L1293.79 214.589L1294.03 215.907L1292.02 216.456L1289.8 217.244L1289.63 216.195L1290.89 213.25C1291.14 212.671 1291.22 212.213 1291.11 211.877Z" fill="black"/>
<path d="M1317.95 593.88L1279.21 477L1160.63 507.679L1181.93 623.744L1317.95 593.88Z" fill="#FFA600" stroke="#F5F5F5" stroke-width="3" stroke-linecap="round"/>
<path d="M1203.77 551.294C1206.27 550.729 1208.36 550.857 1210.04 551.679C1211.72 552.475 1212.74 553.828 1213.12 555.738C1213.72 558.8 1212.89 561.216 1210.62 562.985C1214.24 563.397 1216.35 565.186 1216.97 568.353C1217.44 570.735 1216.81 572.953 1215.09 575.009C1213.37 577.039 1210.98 578.401 1207.91 579.096C1206.3 579.461 1203.86 579.862 1200.61 580.298L1199.21 570.653L1195.31 553.211L1203.77 551.294ZM1206.28 566.837L1203.12 567.553L1203.37 569.014L1204.89 575.351C1206.43 575.14 1207.6 574.943 1208.4 574.761C1209.78 574.449 1210.78 573.867 1211.4 573.016C1212.05 572.133 1212.24 571.024 1211.98 569.689C1211.71 568.354 1211.13 567.448 1210.22 566.97C1209.31 566.493 1208 566.448 1206.28 566.837ZM1203.15 555.577L1201.23 556.01L1202.5 563.718L1205.03 563.144C1206.36 562.844 1207.3 562.261 1207.87 561.395C1208.43 560.503 1208.58 559.39 1208.32 558.055C1207.86 555.726 1206.14 554.9 1203.15 555.577ZM1223.44 546.636L1225.51 559.531L1232.97 544.56L1237.48 546.328L1230.55 558.841L1242.29 568.031L1237.91 572.302L1225.74 560.914L1226.23 563.837L1228.7 573.937L1223.24 575.174L1221.84 565.529L1218.09 548.872L1223.44 546.636ZM1257.24 548.331C1256.95 546.865 1255.92 546.333 1254.15 546.733C1253.06 546.981 1251.9 547.49 1250.66 548.261C1249.45 549.001 1248.5 549.694 1247.81 550.342L1246.81 551.266L1246.77 545.413C1247.67 544.634 1248.8 543.873 1250.15 543.131C1251.49 542.362 1252.71 541.854 1253.8 541.606C1256.01 541.106 1257.89 541.281 1259.45 542.132C1261.02 542.951 1261.99 544.303 1262.36 546.187C1262.85 548.726 1262.05 551.67 1259.93 555.018L1254.52 563.621L1266.56 560.159L1266.91 565.53L1258.73 567.014L1249.58 569.374L1249.4 565.11L1255.73 553.755C1257.01 551.526 1257.51 549.718 1257.24 548.331ZM1270.42 563.096L1276.42 541.486L1264.86 545.048L1264.66 539.436L1272.97 538.004L1280.68 535.766L1280.92 540.099L1277.17 554.681L1276.31 563.608L1270.42 563.096Z" fill="black"/>
<path d="M1181.96 623.863L1160.68 507.799L1043.5 523.533L1051.91 642.023L1181.96 623.863Z" fill="#FFA600" stroke="#F5F5F5" stroke-width="3" stroke-linecap="round"/>
<path d="M1076.17 574.329C1078.71 573.962 1080.79 574.254 1082.41 575.204C1084.03 576.127 1084.96 577.555 1085.2 579.487C1085.59 582.582 1084.59 584.922 1082.21 586.507C1085.79 587.2 1087.78 589.148 1088.18 592.35C1088.49 594.757 1087.71 596.918 1085.85 598.83C1083.99 600.716 1081.51 601.884 1078.39 602.336C1076.75 602.573 1074.3 602.781 1071.01 602.96L1070.28 593.247L1067.58 575.574L1076.17 574.329ZM1077.61 590.002L1074.41 590.467L1074.55 591.941L1075.64 598.37C1077.18 598.281 1078.37 598.177 1079.19 598.058C1080.58 597.856 1081.62 597.355 1082.3 596.556C1083 595.727 1083.27 594.638 1083.1 593.288C1082.93 591.939 1082.41 590.99 1081.54 590.444C1080.66 589.897 1079.35 589.75 1077.61 590.002ZM1075.25 578.545L1073.31 578.826L1074.04 586.6L1076.62 586.227C1077.96 586.032 1078.95 585.525 1079.57 584.708C1080.19 583.864 1080.41 582.767 1080.25 581.417C1079.95 579.062 1078.29 578.105 1075.25 578.545ZM1096.14 571.233L1097.33 584.236L1105.81 569.913L1110.19 572.027L1102.41 583.944L1113.51 594.014L1108.84 597.924L1097.46 585.63L1097.75 588.579L1099.52 598.829L1093.98 599.633L1093.24 589.919L1090.65 573.04L1096.14 571.233ZM1129.79 575.57C1129.61 574.089 1128.62 573.478 1126.82 573.738C1125.71 573.899 1124.52 574.314 1123.23 574.986C1121.97 575.627 1120.97 576.243 1120.24 576.834L1119.17 577.675L1119.53 571.844C1120.49 571.14 1121.67 570.47 1123.07 569.837C1124.47 569.176 1125.72 568.766 1126.83 568.605C1129.07 568.28 1130.94 568.602 1132.43 569.572C1133.94 570.511 1134.82 571.933 1135.06 573.838C1135.38 576.404 1134.37 579.272 1132.02 582.44L1126.03 590.583L1138.29 588.078L1138.28 593.455L1130 594.291L1120.69 595.922L1120.81 591.663L1127.92 580.853C1129.34 578.734 1129.97 576.973 1129.79 575.57ZM1145.14 577.792C1146.61 576.285 1148.3 575.393 1150.2 575.118C1152.1 574.843 1153.78 575.328 1155.22 576.573C1156.69 577.814 1157.58 579.613 1157.87 581.968C1158.17 584.322 1157.51 586.492 1155.91 588.476C1154.3 590.459 1152.22 591.637 1149.66 592.008C1147.12 592.375 1144.99 591.823 1143.24 590.351C1141.5 588.879 1140.46 586.768 1140.11 584.016C1139.77 581.264 1140.21 578.439 1141.43 575.541C1142.68 572.639 1144.79 569.316 1147.76 565.572L1153.55 567.116C1148.95 571.097 1146.14 574.656 1145.14 577.792ZM1148.97 579.459C1147.28 579.703 1145.82 580.386 1144.59 581.507C1144.61 582.097 1144.64 582.551 1144.68 582.868C1144.9 584.562 1145.48 585.865 1146.42 586.779C1147.37 587.666 1148.45 588.021 1149.66 587.845C1150.9 587.665 1151.83 587.153 1152.45 586.309C1153.07 585.465 1153.31 584.448 1153.16 583.257C1153 582.04 1152.53 581.071 1151.75 580.35C1150.95 579.603 1150.03 579.306 1148.97 579.459Z" fill="black"/>
<path d="M915.5 643.023L922.474 523.023L1043.62 524.094L1051.5 641.763L960.332 643.023H915.5Z" fill="#FFA600" stroke="#F5F5F5" stroke-width="3" stroke-linecap="round"/>
<path d="M948.88 577.4C951.44 577.4 953.467 577.987 954.96 579.16C956.453 580.307 957.2 581.853 957.2 583.8C957.2 586.92 955.92 589.093 953.36 590.32C956.827 591.52 958.56 593.733 958.56 596.96C958.56 599.387 957.52 601.413 955.44 603.04C953.36 604.64 950.747 605.44 947.6 605.44C945.947 605.44 943.48 605.293 940.2 605L940.68 595.28L940.2 577.4H948.88ZM948.36 593.12H945.12L945.08 594.6L945.36 601.12C946.907 601.253 948.093 601.32 948.92 601.32C950.333 601.32 951.427 600.973 952.2 600.28C953 599.56 953.4 598.52 953.4 597.16C953.4 595.8 953 594.787 952.2 594.12C951.4 593.453 950.12 593.12 948.36 593.12ZM947.44 581.44H945.48L945.24 589.24H947.84C949.2 589.24 950.24 588.88 950.96 588.16C951.68 587.413 952.04 586.36 952.04 585C952.04 582.627 950.507 581.44 947.44 581.44ZM969.083 577.2L968.643 590.24L978.843 577.28L982.923 580L973.723 590.68L983.483 602.24L978.363 605.44L968.603 591.64L968.523 594.6L969.003 605H963.403L963.883 595.28L963.403 578.2L969.083 577.2ZM1001.94 586.32C1001.94 584.827 1001.03 584.08 999.22 584.08C998.1 584.08 996.86 584.32 995.5 584.8C994.167 585.253 993.1 585.72 992.3 586.2L991.14 586.88L992.22 581.16C993.26 580.6 994.513 580.107 995.98 579.68C997.447 579.227 998.74 579 999.86 579C1002.13 579 1003.94 579.587 1005.3 580.76C1006.69 581.907 1007.38 583.44 1007.38 585.36C1007.38 587.947 1006.02 590.64 1003.3 593.44L996.34 600.64L1008.82 599.92L1008.14 605.24L999.82 604.88L990.38 605.16L991.02 600.96L999.42 591.28C1001.1 589.387 1001.94 587.733 1001.94 586.32ZM1028.13 596.44C1028.13 598.92 1027.13 601.04 1025.13 602.8C1023.16 604.56 1020.74 605.44 1017.89 605.44C1016.56 605.44 1015.28 605.28 1014.05 604.96C1012.82 604.613 1011.93 604.28 1011.37 603.96L1010.53 603.44L1012.21 598.76C1013.04 599.4 1014.06 599.987 1015.29 600.52C1016.54 601.053 1017.7 601.32 1018.77 601.32C1019.86 601.32 1020.84 600.987 1021.69 600.32C1022.54 599.627 1022.97 598.787 1022.97 597.8C1022.97 595.373 1021.34 593.893 1018.09 593.36L1012.77 592.48V579.24L1019.65 579.72L1027.77 579.28L1026.89 584.8L1016.61 583.88V588.56L1020.97 589.32C1023.21 589.72 1024.96 590.56 1026.21 591.84C1027.49 593.12 1028.13 594.653 1028.13 596.44Z" fill="black"/>
<path d="M915 643.023L922 522.523L891.5 522.023L800.089 509.379L778 624.523L915 643.023Z" fill="#FFA600" stroke="#F5F5F5" stroke-width="3" stroke-linecap="round"/>
<path d="M822.798 564.84C825.338 565.164 827.285 566.004 828.641 567.36C830 568.689 830.575 570.322 830.367 572.257C830.034 575.359 828.532 577.358 825.861 578.253C829.172 579.886 830.655 582.306 830.31 585.514C830.051 587.927 828.802 589.81 826.565 591.164C824.331 592.491 821.653 592.956 818.532 592.557C816.892 592.348 814.461 591.889 811.239 591.182L812.753 581.579L814.188 563.74L822.798 564.84ZM820.602 580.404L817.389 579.993L817.191 581.46L816.772 587.978C818.292 588.307 819.462 588.523 820.282 588.628C821.684 588.807 822.805 588.601 823.646 588.009C824.517 587.395 825.025 586.411 825.17 585.059C825.315 583.707 825.027 582.649 824.305 581.885C823.582 581.12 822.348 580.627 820.602 580.404ZM820.938 568.674L818.994 568.426L817.922 576.151L820.501 576.48C821.85 576.653 822.92 576.426 823.712 575.802C824.506 575.15 824.975 574.149 825.121 572.797C825.374 570.437 823.98 569.063 820.938 568.674ZM842.86 567.2L841.03 580.11L852.533 568.516L856.289 571.738L846.022 581.191L854.468 593.921L849.047 596.454L840.841 581.497L840.445 584.43L839.81 594.831L834.255 594.122L835.77 584.518L837.119 567.475L842.86 567.2ZM874.477 580.431C874.637 578.946 873.817 578.089 872.019 577.859C870.908 577.717 869.652 577.799 868.252 578.104C866.881 578.385 865.773 578.714 864.928 579.09L863.705 579.619L865.387 574.069C866.479 573.644 867.775 573.312 869.275 573.074C870.778 572.809 872.086 572.747 873.197 572.889C875.445 573.176 877.181 573.989 878.405 575.328C879.658 576.644 880.181 578.257 879.976 580.166C879.7 582.737 878.063 585.243 875.066 587.682L867.392 593.959L879.849 594.825L878.605 600.028L870.391 598.616L860.997 597.698L862.081 593.604L871.448 585.043C873.316 583.374 874.326 581.836 874.477 580.431ZM881.786 590.194L892.832 576.486L899.465 576.526L897.255 591.847L901.081 592.174L900.252 596.14L897.087 595.655L896.636 602.089L891.082 601.379L892.175 594.948L881.101 593.573L881.786 590.194ZM893.557 580.973L886.149 590.388L892.661 591.179L893.557 580.973Z" fill="black"/>
<path d="M728 349.5L580.5 429.5L554.5 383L533 343.5L613 300.5L681.5 261.5L705 306.5L728 349.5Z" fill="#FFA600" stroke="#F5F5F5" stroke-width="3" stroke-linecap="round"/>
<path d="M596.25 351.586C598.508 350.379 600.541 349.957 602.35 350.319C604.147 350.656 605.453 351.709 606.268 353.477C607.574 356.31 607.355 358.887 605.611 361.208C609.17 360.664 611.626 361.857 612.977 364.787C613.993 366.991 613.924 369.322 612.77 371.779C611.605 374.213 609.635 376.171 606.86 377.654C605.402 378.433 603.165 379.462 600.149 380.742L596.503 371.688L588.595 355.677L596.25 351.586ZM602.373 366.107L599.515 367.634L600.1 368.997L603.076 374.786C604.496 374.178 605.57 373.68 606.3 373.29C607.546 372.624 608.365 371.794 608.757 370.8C609.161 369.769 609.079 368.636 608.509 367.401C607.94 366.166 607.163 365.434 606.178 365.205C605.194 364.977 603.925 365.278 602.373 366.107ZM596.672 355.933L594.943 356.857L597.997 364.054L600.29 362.829C601.489 362.188 602.256 361.37 602.59 360.377C602.912 359.36 602.789 358.234 602.219 356.999C601.226 354.843 599.376 354.488 596.672 355.933ZM613.985 341.883L619.056 353.932L622.627 337.356L627.364 337.903L623.721 351.938L637.169 357.836L633.993 363.155L619.607 355.223L620.776 357.949L625.553 367.167L620.614 369.806L616.968 360.753L609.394 345.468L613.985 341.883ZM635.401 333.835C637.041 332.053 638.838 330.64 640.79 329.597C642.742 328.554 644.576 328.208 646.291 328.559C648.007 328.91 649.222 329.861 649.936 331.411C650.494 332.621 650.68 333.85 650.492 335.097C650.294 336.32 649.736 337.463 648.82 338.527C650.756 338.277 652.307 338.429 653.471 338.984C654.625 339.514 655.531 340.494 656.189 341.923C657.194 344.103 657.202 346.347 656.215 348.655C655.239 350.927 653.493 352.735 650.977 354.08C649.777 354.721 648.529 355.192 647.231 355.493C645.946 355.757 644.955 355.864 644.258 355.814L643.212 355.739L642.667 350.552C642.968 350.633 643.362 350.724 643.849 350.826C644.336 350.928 645.19 350.97 646.412 350.95C647.647 350.894 648.77 350.596 649.781 350.056C650.793 349.515 651.546 348.765 652.042 347.806C652.527 346.823 652.529 345.811 652.049 344.769C651.569 343.728 650.726 343.107 649.519 342.906C648.337 342.693 646.969 343.001 645.417 343.831L642.383 345.452L641.394 341.589L643.334 340.552C644.627 339.861 645.499 339.018 645.949 338.023C646.399 337.028 646.407 336.058 645.971 335.114C645.536 334.169 644.895 333.606 644.049 333.424C643.192 333.218 642.328 333.348 641.458 333.813C640.611 334.265 639.802 334.894 639.03 335.699C638.27 336.467 637.489 337.443 636.686 338.626L635.401 333.835ZM664.009 325.475C663.384 324.119 662.271 323.868 660.672 324.723C659.684 325.251 658.691 326.053 657.693 327.13C656.706 328.17 655.961 329.097 655.456 329.91L654.718 331.074L653.276 325.37C653.959 324.372 654.857 323.333 655.972 322.254C657.076 321.151 658.122 320.336 659.11 319.808C661.109 318.74 662.954 318.418 664.645 318.843C666.348 319.23 667.601 320.296 668.405 322.04C669.488 324.389 669.416 327.476 668.189 331.3L665.065 341.119L675.77 334.584L677.398 339.736L669.909 343.33L661.7 348.033L660.506 343.917L663.863 331.167C664.552 328.656 664.6 326.759 664.009 325.475Z" fill="black"/>
<path d="M681.296 261.503L830.242 176.873L879.316 264.888L727.775 349.519L681.296 261.503Z" fill="#FFA600" stroke="#F5F5F5" stroke-width="3" stroke-linecap="round"/>
<path d="M748.2 268.201C750.468 267.014 752.505 266.609 754.309 266.987C756.102 267.341 757.398 268.405 758.196 270.181C759.475 273.026 759.232 275.602 757.467 277.908C761.03 277.395 763.474 278.61 764.797 281.553C765.792 283.767 765.701 286.097 764.525 288.545C763.338 290.969 761.351 292.91 758.562 294.369C757.098 295.135 754.852 296.145 751.825 297.398L748.265 288.31L740.509 272.225L748.2 268.201ZM754.185 282.78L751.314 284.282L751.885 285.65L754.807 291.467C756.232 290.872 757.31 290.382 758.043 289.999C759.295 289.344 760.122 288.521 760.523 287.53C760.936 286.502 760.864 285.368 760.307 284.128C759.749 282.887 758.979 282.149 757.997 281.912C757.015 281.674 755.744 281.964 754.185 282.78ZM748.581 272.553L746.844 273.462L749.829 280.687L752.133 279.482C753.338 278.851 754.112 278.041 754.455 277.05C754.787 276.036 754.674 274.908 754.116 273.667C753.143 271.503 751.298 271.131 748.581 272.553ZM766.019 258.652L770.975 270.749L774.699 254.2L779.43 254.789L775.657 268.796L789.044 274.814L785.82 280.107L771.514 272.045L772.657 274.782L777.346 284.045L772.384 286.641L768.824 277.553L761.396 262.197L766.019 258.652ZM787.501 250.791C789.158 249.023 790.967 247.626 792.928 246.6C794.889 245.574 796.725 245.244 798.437 245.61C800.148 245.976 801.354 246.938 802.053 248.494C802.6 249.711 802.774 250.942 802.575 252.187C802.365 253.409 801.797 254.547 800.871 255.603C802.809 255.37 804.358 255.536 805.516 256.101C806.664 256.642 807.561 257.63 808.206 259.065C809.19 261.254 809.177 263.499 808.169 265.799C807.172 268.063 805.41 269.856 802.882 271.179C801.677 271.81 800.425 272.27 799.125 272.559C797.838 272.812 796.846 272.91 796.149 272.854L795.104 272.77L794.609 267.577C794.909 267.66 795.302 267.755 795.787 267.861C796.273 267.968 797.127 268.017 798.349 268.008C799.583 267.963 800.708 267.675 801.724 267.143C802.74 266.611 803.501 265.868 804.005 264.913C804.499 263.934 804.511 262.921 804.041 261.875C803.571 260.829 802.734 260.201 801.53 259.99C800.349 259.766 798.979 260.062 797.42 260.878L794.372 262.473L793.419 258.6L795.368 257.58C796.668 256.9 797.547 256.065 798.006 255.073C798.465 254.082 798.482 253.112 798.055 252.164C797.629 251.215 796.994 250.646 796.15 250.457C795.295 250.243 794.43 250.365 793.556 250.822C792.706 251.268 791.891 251.889 791.111 252.688C790.345 253.449 789.555 254.418 788.741 255.595L787.501 250.791ZM812.253 236.488L818.118 250.995L822.807 260.258L817.845 262.854L814.285 253.766L809.918 244.83L804.973 247.463L803.907 245.091L812.253 236.488Z" fill="black"/>
<path d="M830.416 176.873L979.537 93.2094L1030.45 182.408L879.443 265.33L830.416 176.873Z" fill="#FFA600" stroke="#F5F5F5" stroke-width="3" stroke-linecap="round"/>
<path d="M897.331 187.112C899.572 185.875 901.6 185.425 903.415 185.761C905.219 186.074 906.541 187.107 907.383 188.862C908.732 191.676 908.552 194.254 906.841 196.597C910.395 196.004 912.87 197.162 914.265 200.071C915.315 202.259 915.281 204.589 914.163 207.061C913.034 209.508 911.092 211.493 908.337 213.013C906.89 213.812 904.667 214.872 901.668 216.192L897.885 207.196L889.732 191.307L897.331 187.112ZM903.674 201.538L900.838 203.103L901.443 204.457L904.508 210.2C905.919 209.573 906.987 209.06 907.711 208.66C908.948 207.977 909.756 207.137 910.133 206.138C910.522 205.102 910.422 203.971 909.834 202.745C909.246 201.518 908.457 200.798 907.469 200.584C906.48 200.369 905.215 200.687 903.674 201.538ZM897.818 191.451L896.102 192.398L899.265 199.547L901.541 198.29C902.732 197.633 903.487 196.806 903.806 195.809C904.113 194.788 903.973 193.664 903.384 192.438C902.358 190.298 900.502 189.969 897.818 191.451ZM914.932 177.169L920.187 189.139L923.512 172.525L928.26 173.006L924.824 187.081L938.369 192.788L935.27 198.147L920.757 190.421L921.967 193.128L926.885 202.274L921.982 204.98L918.199 195.984L910.392 180.816L914.932 177.169ZM936.241 168.829C937.856 167.025 939.632 165.588 941.57 164.519C943.508 163.449 945.337 163.078 947.059 163.405C948.781 163.732 950.011 164.665 950.749 166.203C951.325 167.406 951.529 168.631 951.361 169.88C951.18 171.104 950.639 172.254 949.738 173.33C951.672 173.053 953.226 173.184 954.399 173.722C955.561 174.236 956.483 175.202 957.163 176.621C958.201 178.785 958.243 181.027 957.289 183.348C956.347 185.631 954.627 187.463 952.129 188.842C950.938 189.499 949.696 189.987 948.402 190.306C947.12 190.588 946.13 190.708 945.432 190.668L944.384 190.608L943.761 185.432C944.064 185.508 944.459 185.594 944.948 185.689C945.437 185.785 946.292 185.814 947.515 185.778C948.749 185.705 949.869 185.391 950.873 184.837C951.876 184.283 952.619 183.523 953.101 182.558C953.571 181.568 953.559 180.557 953.063 179.523C952.567 178.489 951.714 177.88 950.504 177.697C949.317 177.5 947.953 177.827 946.412 178.678L943.401 180.34L942.353 176.494L944.279 175.431C945.563 174.722 946.423 173.867 946.858 172.867C947.294 171.866 947.287 170.897 946.837 169.959C946.387 169.021 945.738 168.468 944.888 168.298C944.028 168.104 943.165 168.245 942.302 168.722C941.461 169.186 940.661 169.825 939.9 170.641C939.151 171.419 938.384 172.405 937.598 173.599L936.241 168.829ZM961.663 153.474C964.068 152.146 966.467 152.069 968.86 153.242C971.265 154.377 973.24 156.556 974.786 159.778C976.735 163.842 977.381 167.529 976.726 170.841C976.093 174.139 974.236 176.639 971.155 178.34C968.797 179.642 966.398 179.719 963.958 178.572C961.53 177.388 959.549 175.198 958.015 172C956.181 168.177 955.604 164.542 956.284 161.096C956.975 157.612 958.768 155.072 961.663 153.474ZM970.58 174.187C972.074 173.363 972.83 172.2 972.849 170.7C972.891 169.186 972.191 166.927 970.749 163.922C969.308 160.916 967.995 158.98 966.812 158.113C965.616 157.222 964.26 157.195 962.743 158.032C961.225 158.87 960.405 160.053 960.281 161.58C960.169 163.071 960.794 165.235 962.155 168.073C963.504 170.886 964.875 172.82 966.267 173.876C967.648 174.908 969.086 175.012 970.58 174.187Z" fill="black"/>
<path d="M847.817 754.961L810.658 747.854L787.729 910.538L828.842 915.276L847.817 754.961Z" fill="#D700B6" stroke="#F5F5F5" stroke-width="3" stroke-linecap="round"/>
<path d="M838.945 777.488L840.742 777.921L839.672 785.445L837.875 785.013L838.505 782.29L833.286 781.485L829.14 781.091L829.456 778.874L833.278 779.61L838.768 780.324L838.945 777.488ZM827.572 791.556L830.771 791.218L831.309 787.432L828.419 786.165L828.866 784.16L832.517 786.1L839.027 789.189L838.83 792.054L831.759 793.136L827.596 793.886L827.572 791.556ZM836.973 790.336L837.002 790.13L832.919 788.161L832.518 790.981L836.973 790.336ZM836.885 805.281L830.071 804.104L826.276 803.744L826.145 801.819L834.452 798.181L830.983 797.689L826.832 797.327L827.114 795.346L830.936 796.082L837.997 796.89L837.822 798.804L829.407 802.41L836.922 803.315L836.885 805.281ZM824.926 809.491C825.032 808.741 825.244 807.667 825.561 806.268L829.384 807.004L836.492 807.818L835.891 812.048C835.688 813.473 835.102 814.527 834.132 815.208C833.163 815.889 831.918 816.122 830.397 815.906C828.475 815.634 827.019 814.921 826.031 813.768C825.052 812.617 824.684 811.191 824.926 809.491ZM834.261 811.235C834.36 810.538 834.425 810.046 834.455 809.759L829.392 808.88L826.81 808.627C826.62 809.505 826.504 810.097 826.46 810.403C826.342 811.237 826.587 811.94 827.195 812.511C827.802 813.093 828.749 813.475 830.038 813.658C831.326 813.84 832.316 813.738 833.007 813.352C833.696 812.975 834.114 812.27 834.261 811.235ZM823.077 823.176L826.277 822.837L826.815 819.052L823.924 817.785L824.371 815.78L828.022 817.72L834.532 820.809L834.335 823.673L827.265 824.755L823.101 825.506L823.077 823.176ZM832.478 821.956L832.508 821.75L828.424 819.781L828.023 822.6L832.478 821.956ZM825.747 827.587C824.722 828.358 824.145 829.192 824.017 830.089C823.951 830.554 824.004 830.939 824.177 831.243C824.358 831.56 824.618 831.742 824.955 831.79C825.304 831.839 825.618 831.712 825.899 831.407C826.19 831.103 826.46 830.721 826.708 830.261C826.955 829.811 827.223 829.364 827.513 828.921C827.813 828.478 828.198 828.118 828.668 827.84C829.139 827.562 829.675 827.466 830.277 827.551C831.227 827.686 831.99 828.198 832.564 829.087C833.148 829.978 833.363 830.968 833.208 832.055C833.138 832.552 833.017 833.025 832.845 833.474C832.673 833.924 832.456 834.351 832.194 834.756L830.034 833.351C830.309 833.088 830.578 832.711 830.841 832.221C831.114 831.742 831.278 831.308 831.334 830.917C831.388 830.537 831.337 830.212 831.182 829.942C831.035 829.684 830.809 829.533 830.502 829.49C830.196 829.447 829.898 829.577 829.607 829.88C829.326 830.185 829.062 830.562 828.815 831.012C828.567 831.473 828.298 831.925 828.008 832.368C827.728 832.824 827.353 833.191 826.882 833.469C826.412 833.747 825.876 833.843 825.274 833.758C824.281 833.617 823.466 833.098 822.829 832.199C822.202 831.302 821.964 830.326 822.114 829.27C822.226 828.478 822.516 827.803 822.984 827.244C823.388 826.752 823.732 826.413 824.017 826.227L824.212 826.109L825.747 827.587ZM809.854 774.655L813.677 775.391L820.468 776.161L820.544 778.466L813.685 777.267L811.103 777.014L810.894 780.297L809.113 779.867L809.854 774.655ZM808.895 781.4L812.718 782.136L819.826 782.95L818.982 788.891L817.311 788.476L817.818 784.912L815.027 784.419L814.577 787.587L812.923 787.175L813.357 784.117L812.726 784.012L810.271 783.777L809.726 787.61L808.071 787.198L808.895 781.4ZM807.787 789.197L811.609 789.933L818.401 790.702L818.477 793.007L811.618 791.808L809.035 791.555L808.827 794.839L807.046 794.408L807.787 789.197ZM805.839 802.33L809.039 801.992L809.577 798.206L806.686 796.939L807.133 794.934L810.784 796.874L817.294 799.963L817.097 802.828L810.027 803.909L805.864 804.66L805.839 802.33ZM815.241 801.11L815.27 800.904L811.186 798.935L810.786 801.755L815.241 801.11ZM816.071 809.931L810.932 809.024L815.49 813.792L814.183 815.255L810.472 811.011L805.344 814.227L804.365 812.02L810.38 808.93L809.212 808.732L805.066 808.338L805.381 806.12L809.204 806.856L815.995 807.626L816.071 809.931ZM814.77 819.089L807.91 817.89L803.764 817.496L804.08 815.278L807.902 816.014L814.693 816.783L814.77 819.089Z" fill="black"/>
<path d="M870.45 919.243L884.977 758.12L847.817 754.961L828.8 915.14L870.45 919.243Z" fill="#D700B6" stroke="#F5F5F5" stroke-width="3" stroke-linecap="round"/>
<path d="M876.973 781.021L878.782 781.399L877.945 788.952L876.135 788.575L876.68 785.834L871.44 785.19L867.284 784.924L867.53 782.697L871.374 783.316L876.883 783.861L876.973 781.021ZM866.038 795.432L869.225 794.995L869.647 791.195L866.719 790.018L867.104 788L870.813 789.827L877.415 792.714L877.306 795.584L870.272 796.882L866.134 797.76L866.038 795.432ZM875.397 793.924L875.42 793.717L871.278 791.874L870.964 794.705L875.397 793.924ZM875.769 808.864L868.922 807.897L865.117 807.654L864.928 805.733L873.119 801.842L869.636 801.457L865.476 801.222L865.697 799.234L869.54 799.853L876.622 800.443L876.506 802.362L868.206 806.225L875.745 806.898L875.769 808.864ZM863.945 813.439C864.028 812.686 864.207 811.606 864.481 810.198L868.324 810.817L875.454 811.412L874.983 815.658C874.824 817.09 874.271 818.161 873.323 818.871C872.375 819.582 871.137 819.853 869.611 819.684C867.681 819.471 866.204 818.803 865.181 817.681C864.167 816.56 863.755 815.146 863.945 813.439ZM873.329 814.896C873.407 814.196 873.456 813.703 873.477 813.415L868.39 812.691L865.801 812.518C865.639 813.401 865.541 813.997 865.507 814.304C865.414 815.142 865.68 815.836 866.306 816.389C866.93 816.951 867.889 817.304 869.183 817.447C870.476 817.59 871.462 817.458 872.14 817.05C872.818 816.653 873.214 815.935 873.329 814.896ZM862.518 827.174L865.705 826.738L866.127 822.938L863.199 821.761L863.584 819.743L867.293 821.57L873.895 824.457L873.786 827.326L866.752 828.625L862.614 829.503L862.518 827.174ZM871.877 825.667L871.9 825.46L867.758 823.617L867.444 826.448L871.877 825.667ZM865.322 831.502C864.321 832.304 863.77 833.155 863.671 834.056C863.619 834.523 863.684 834.905 863.865 835.205C864.056 835.515 864.321 835.69 864.66 835.727C865.01 835.766 865.321 835.629 865.592 835.315C865.873 835.003 866.131 834.613 866.365 834.145C866.598 833.688 866.853 833.233 867.128 832.781C867.414 832.329 867.788 831.958 868.25 831.665C868.712 831.373 869.245 831.26 869.849 831.327C870.803 831.433 871.581 831.921 872.182 832.792C872.793 833.665 873.038 834.647 872.917 835.739C872.862 836.238 872.756 836.714 872.598 837.169C872.44 837.624 872.236 838.057 871.987 838.469L869.785 837.131C870.051 836.86 870.308 836.475 870.557 835.977C870.815 835.49 870.965 835.051 871.009 834.659C871.051 834.277 870.99 833.954 870.827 833.689C870.672 833.436 870.441 833.292 870.134 833.258C869.826 833.224 869.532 833.363 869.251 833.675C868.98 833.989 868.728 834.374 868.495 834.831C868.26 835.299 868.005 835.759 867.73 836.212C867.464 836.676 867.1 837.054 866.638 837.346C866.176 837.639 865.643 837.752 865.039 837.685C864.042 837.574 863.212 837.08 862.547 836.202C861.893 835.324 861.625 834.356 861.743 833.296C861.831 832.5 862.1 831.817 862.55 831.244C862.938 830.74 863.272 830.39 863.551 830.196L863.742 830.072L865.322 831.502ZM858.399 783.747C858.286 784.765 857.905 785.544 857.255 786.084C856.615 786.625 855.792 786.839 854.785 786.728C853.777 786.617 852.956 786.139 852.319 785.296C851.694 784.454 851.442 783.482 851.564 782.38L851.665 781.473L847.572 781.214L847.809 779.083L851.652 779.701L858.782 780.297L858.399 783.747ZM856.856 782.997L856.943 782.218L853.202 781.691L853.082 782.773C853.023 783.303 853.153 783.73 853.471 784.055C853.788 784.391 854.27 784.595 854.917 784.666C856.072 784.794 856.719 784.238 856.856 782.997ZM846.912 787.174L850.755 787.792L857.885 788.388L857.223 794.351L855.541 793.988L855.938 790.41L853.134 790.003L852.781 793.183L851.115 792.822L851.455 789.753L850.821 789.667L848.359 789.507L847.932 793.355L846.266 792.994L846.912 787.174ZM849.958 798.315L850.059 797.409L849.963 797.398L845.807 797.132L846.044 795.001L849.887 795.619L857.017 796.215L856.634 799.666C856.521 800.683 856.156 801.464 855.537 802.007C854.919 802.55 854.154 802.772 853.242 802.671C852.553 802.595 851.942 802.344 851.41 801.921C850.887 801.509 850.494 800.982 850.232 800.342L846.014 802.676L845.241 800.643L849.937 798.651C849.935 798.576 849.942 798.464 849.958 798.315ZM855.091 798.915L855.178 798.136L851.596 797.627L851.476 798.709C851.417 799.239 851.547 799.666 851.865 799.991C852.182 800.327 852.664 800.53 853.311 800.602C854.36 800.718 854.954 800.156 855.091 798.915ZM845.022 804.21L848.866 804.828L855.995 805.424L855.334 811.387L853.652 811.024L854.049 807.446L851.244 807.039L850.892 810.22L849.225 809.858L849.566 806.789L848.931 806.703L846.47 806.543L846.043 810.392L844.377 810.03L845.022 804.21ZM848.605 817.198L848.587 817.357L854.373 820.347L854.066 822.534L847.221 821.841L843.084 821.69L843.322 819.543L847.448 820.08L851.65 820.368L846.598 817.877L846.719 815.91L852.276 814.722L848.109 814.116L843.962 813.77L844.181 811.798L848.021 812.449L854.832 813.299L854.95 815.871L848.605 817.198ZM853.427 828.582C853.315 829.6 852.933 830.379 852.283 830.918C851.644 831.459 850.82 831.674 849.813 831.563C848.806 831.451 847.984 830.974 847.348 830.131C846.722 829.289 846.47 828.317 846.593 827.214L846.693 826.308L842.601 826.048L842.837 823.917L846.68 824.536L853.81 825.131L853.427 828.582ZM851.885 827.832L851.971 827.053L848.23 826.526L848.111 827.607C848.052 828.138 848.181 828.565 848.5 828.89C848.816 829.226 849.298 829.429 849.945 829.501C851.101 829.628 851.747 829.072 851.885 827.832ZM841.393 835.344C841.499 834.39 841.88 833.617 842.536 833.024C843.19 832.442 843.947 832.198 844.806 832.293L852.616 832.996L852.76 835.33L845.822 834.305C845.08 834.223 844.484 834.329 844.033 834.622C843.58 834.926 843.314 835.439 843.234 836.16C843.154 836.881 843.298 837.422 843.666 837.785C844.033 838.148 844.71 838.383 845.696 838.493L851.951 838.991L852.102 841.262L845.124 840.313C843.873 840.174 842.902 839.643 842.21 838.719C841.518 837.794 841.246 836.669 841.393 835.344ZM839.999 848.782L843.187 848.346L843.608 844.546L840.68 843.368L841.065 841.351L844.774 843.177L851.376 846.065L851.267 848.934L844.233 850.233L840.095 851.111L839.999 848.782ZM849.359 847.274L849.381 847.068L845.239 845.225L844.925 848.056L849.359 847.274ZM849.73 862.215L842.883 861.248L839.079 861.005L838.889 859.084L847.08 855.193L843.597 854.808L839.438 854.573L839.658 852.585L843.501 853.204L850.583 853.794L850.467 855.713L842.167 859.575L849.707 860.249L849.73 862.215Z" fill="black"/>
<path d="M870.95 919.266L885.478 757.874L977.2 759.023V923.825C936.259 924.491 913.346 923.629 870.95 919.266Z" fill="#FFA600" stroke="#F5F5F5" stroke-width="3" stroke-linecap="round"/>
<path d="M900.605 809.015C902.653 809.035 904.273 809.52 905.463 810.471C906.654 811.4 907.246 812.643 907.24 814.201C907.23 816.697 906.199 818.425 904.147 819.386C906.916 820.374 908.295 822.158 908.284 824.74C908.276 826.681 907.438 828.294 905.768 829.579C904.099 830.842 902.006 831.461 899.489 831.436C898.166 831.423 896.193 831.286 893.571 831.025L893.987 823.253L893.662 808.945L900.605 809.015ZM900.138 821.586L897.546 821.56L897.509 822.744L897.711 827.962C898.948 828.081 899.897 828.144 900.558 828.151C901.689 828.162 902.565 827.893 903.186 827.345C903.828 826.775 904.151 825.946 904.156 824.858C904.16 823.77 903.844 822.957 903.206 822.417C902.568 821.877 901.545 821.6 900.138 821.586ZM899.44 812.235L897.872 812.219L897.654 818.457L899.734 818.478C900.822 818.489 901.655 818.209 902.234 817.639C902.812 817.047 903.104 816.208 903.108 815.12C903.116 813.221 901.893 812.259 899.44 812.235ZM916.768 809.015L916.373 819.444L924.575 809.157L927.83 811.366L920.435 819.836L928.204 829.162L924.098 831.681L916.336 820.564L916.262 822.931L916.612 831.255L912.132 831.21L912.548 823.438L912.221 809.77L916.768 809.015ZM943.022 816.573C943.027 815.379 942.304 814.774 940.853 814.76C939.957 814.751 938.965 814.933 937.875 815.306C936.807 815.658 935.952 816.023 935.311 816.4L934.38 816.935L935.263 812.368C936.097 811.928 937.101 811.543 938.276 811.214C939.451 810.863 940.486 810.692 941.382 810.701C943.195 810.719 944.644 811.202 945.728 812.152C946.834 813.08 947.383 814.313 947.377 815.848C947.368 817.918 946.271 820.062 944.086 822.28L938.495 827.984L948.481 827.508L947.919 831.758L941.265 831.404L933.712 831.553L934.238 828.198L940.99 820.521C942.34 819.02 943.017 817.704 943.022 816.573ZM951.323 811.76C953.118 811.138 954.9 810.835 956.671 810.853C958.441 810.871 959.89 811.333 961.017 812.24C962.144 813.147 962.704 814.284 962.699 815.649C962.694 816.716 962.413 817.652 961.855 818.457C961.297 819.241 960.506 819.83 959.48 820.225C960.971 820.795 962.045 821.499 962.703 822.337C963.361 823.155 963.687 824.193 963.682 825.451C963.674 827.371 962.921 828.953 961.423 830.197C959.946 831.419 958.066 832.019 955.783 831.997C954.695 831.986 953.629 831.837 952.585 831.549C951.562 831.24 950.806 830.934 950.317 830.63L949.583 830.175L950.943 826.316C951.134 826.489 951.389 826.705 951.708 826.964C952.027 827.223 952.634 827.581 953.528 828.038C954.443 828.474 955.36 828.696 956.277 828.706C957.194 828.715 957.995 828.477 958.68 827.993C959.365 827.488 959.709 826.777 959.713 825.86C959.716 824.942 959.314 824.181 958.506 823.576C957.719 822.97 956.622 822.661 955.214 822.647L952.462 822.619L953.051 819.521L954.811 819.539C955.984 819.55 956.902 819.293 957.566 818.766C958.229 818.239 958.563 817.56 958.566 816.728C958.57 815.896 958.295 815.253 957.742 814.8C957.19 814.325 956.519 814.083 955.729 814.076C954.961 814.068 954.161 814.199 953.328 814.468C952.516 814.716 951.618 815.101 950.635 815.625L951.323 811.76Z" fill="black"/>
<path d="M1086.3 918.458L1074.44 756.564L977.191 758.933V923.825C1019.79 923.216 1043.68 922.258 1086.3 918.458Z" fill="#FFA600" stroke="#F5F5F5" stroke-width="3" stroke-linecap="round"/>
<path d="M998.89 809.415C1000.94 809.325 1002.58 809.721 1003.81 810.606C1005.05 811.47 1005.7 812.679 1005.77 814.235C1005.88 816.729 1004.93 818.511 1002.93 819.582C1005.74 820.418 1007.21 822.126 1007.32 824.705C1007.41 826.644 1006.65 828.301 1005.04 829.674C1003.44 831.027 1001.38 831.759 998.862 831.871C997.541 831.929 995.564 831.9 992.932 831.782L992.971 823.996L991.953 809.723L998.89 809.415ZM999.032 821.997L996.443 822.112L996.464 823.297L996.919 828.498C998.159 828.549 999.11 828.56 999.771 828.531C1000.9 828.481 1001.76 828.165 1002.36 827.584C1002.97 826.98 1003.25 826.134 1003.2 825.047C1003.16 823.961 1002.8 823.165 1002.14 822.66C1001.47 822.156 1000.44 821.935 999.032 821.997ZM997.883 812.695L996.316 812.765L996.401 819.007L998.479 818.915C999.566 818.867 1000.38 818.542 1000.93 817.941C1001.48 817.319 1001.73 816.464 1001.69 815.377C1001.6 813.48 1000.33 812.586 997.883 812.695ZM1015.03 808.539L1015.14 818.976L1022.83 808.256L1026.19 810.285L1019.22 819.147L1027.43 828.04L1023.45 830.779L1015.16 820.096L1015.2 822.465L1015.95 830.76L1011.48 830.958L1011.52 823.173L1010.53 809.539L1015.03 808.539ZM1041.61 814.662C1041.56 813.468 1040.81 812.904 1039.36 812.968C1038.46 813.008 1037.48 813.244 1036.41 813.675C1035.36 814.085 1034.53 814.496 1033.9 814.908L1033 815.492L1033.66 810.883C1034.47 810.398 1035.46 809.959 1036.61 809.566C1037.77 809.152 1038.8 808.925 1039.69 808.885C1041.5 808.805 1042.97 809.209 1044.1 810.099C1045.25 810.966 1045.86 812.167 1045.93 813.701C1046.02 815.769 1045.03 817.97 1042.95 820.304L1037.65 826.305L1047.59 825.287L1047.24 829.563L1040.58 829.57L1033.04 830.129L1033.41 826.75L1039.77 818.715C1041.05 817.142 1041.66 815.791 1041.61 814.662ZM1057.88 813.94C1057.83 812.746 1057.07 812.182 1055.62 812.246C1054.73 812.286 1053.75 812.521 1052.68 812.953C1051.63 813.363 1050.79 813.774 1050.17 814.186L1049.27 814.77L1049.93 810.161C1050.74 809.676 1051.72 809.237 1052.88 808.844C1054.04 808.43 1055.06 808.203 1055.96 808.163C1057.77 808.083 1059.24 808.487 1060.37 809.377C1061.52 810.244 1062.12 811.445 1062.19 812.979C1062.28 815.047 1061.29 817.247 1059.22 819.582L1053.91 825.583L1063.86 824.565L1063.5 828.841L1056.84 828.848L1049.31 829.407L1049.67 826.028L1056.04 817.993C1057.32 816.42 1057.93 815.069 1057.88 813.94Z" fill="black"/>
<path d="M1169.31 742.349L1074.44 756.564L1086.3 918.458C1128.57 913.666 1152.14 910.395 1193.82 903.453L1169.31 742.349Z" fill="#FFA600" stroke="#F5F5F5" stroke-width="3" stroke-linecap="round"/>
<path d="M1102.45 803.157C1104.48 802.885 1106.14 803.135 1107.44 803.909C1108.73 804.661 1109.46 805.811 1109.64 807.357C1109.93 809.837 1109.12 811.7 1107.2 812.947C1110.06 813.532 1111.64 815.106 1111.94 817.67C1112.16 819.598 1111.53 821.319 1110.03 822.833C1108.53 824.326 1106.53 825.239 1104.04 825.574C1102.72 825.75 1100.76 825.896 1098.13 826.012L1097.61 818.237L1095.57 804.08L1102.45 803.157ZM1103.5 815.704L1100.93 816.048L1101.03 817.229L1101.86 822.38C1103.1 822.321 1104.04 822.248 1104.7 822.16C1105.82 822.01 1106.66 821.618 1107.2 820.985C1107.77 820.327 1107.99 819.458 1107.87 818.378C1107.74 817.297 1107.33 816.534 1106.63 816.09C1105.94 815.645 1104.89 815.516 1103.5 815.704ZM1101.69 806.52L1100.13 806.729L1100.66 812.952L1102.72 812.676C1103.8 812.531 1104.59 812.134 1105.1 811.486C1105.6 810.816 1105.79 809.941 1105.66 808.86C1105.44 806.974 1104.12 806.194 1101.69 806.52ZM1118.45 800.849L1119.31 811.257L1126.2 799.874L1129.69 801.601L1123.38 811.067L1132.19 819.214L1128.43 822.302L1119.41 812.374L1119.62 814.735L1120.97 822.948L1116.52 823.543L1116 815.769L1114.04 802.248L1118.45 800.849ZM1145.35 804.6C1145.21 803.414 1144.42 802.917 1142.99 803.11C1142.1 803.229 1141.14 803.552 1140.1 804.078C1139.09 804.58 1138.29 805.064 1137.7 805.531L1136.84 806.194L1137.17 801.534C1137.94 800.979 1138.89 800.453 1140.01 799.958C1141.13 799.442 1142.13 799.124 1143.02 799.005C1144.82 798.764 1146.31 799.037 1147.5 799.825C1148.7 800.589 1149.4 801.733 1149.57 803.259C1149.81 805.314 1148.99 807.599 1147.09 810.113L1142.24 816.575L1152.07 814.675L1152.02 818.975L1145.39 819.574L1137.93 820.801L1138.05 817.395L1143.81 808.81C1144.97 807.127 1145.48 805.723 1145.35 804.6ZM1159.98 796.729L1160.95 809.189L1162.3 817.402L1157.86 817.998L1157.34 810.223L1156.16 802.343L1151.72 802.97L1151.48 800.904L1159.98 796.729Z" fill="black"/>
<path d="M1260.51 723.202L1168.8 741.366L1193.31 903.26L1298.46 882.728L1260.51 723.202Z" fill="#FFA600" stroke="#F5F5F5" stroke-width="3" stroke-linecap="round"/>
<path d="M1197.92 788.737C1199.92 788.311 1201.59 788.435 1202.93 789.11C1204.27 789.763 1205.07 790.856 1205.36 792.387C1205.81 794.842 1205.13 796.765 1203.3 798.155C1206.19 798.523 1207.87 799.976 1208.33 802.514C1208.69 804.423 1208.17 806.19 1206.78 807.816C1205.38 809.421 1203.45 810.485 1200.99 811.008C1199.7 811.283 1197.75 811.578 1195.14 811.893L1194.1 804.167L1191.12 790.181L1197.92 788.737ZM1199.79 801.19L1197.26 801.729L1197.44 802.9L1198.61 807.983C1199.84 807.83 1200.78 807.685 1201.42 807.548C1202.53 807.312 1203.34 806.858 1203.84 806.184C1204.36 805.484 1204.52 804.6 1204.33 803.53C1204.13 802.46 1203.67 801.729 1202.94 801.338C1202.22 800.946 1201.17 800.897 1199.79 801.19ZM1197.38 792.154L1195.84 792.481L1196.79 798.657L1198.82 798.224C1199.89 797.998 1200.65 797.542 1201.11 796.855C1201.56 796.148 1201.69 795.26 1201.49 794.19C1201.15 792.323 1199.78 791.644 1197.38 792.154ZM1213.7 785.218L1215.25 795.55L1221.35 783.658L1224.93 785.119L1219.29 795.051L1228.6 802.521L1225.06 805.891L1215.42 796.658L1215.79 799L1217.67 807.102L1213.29 808.033L1212.26 800.307L1209.4 786.95L1213.7 785.218ZM1240.73 786.927C1240.52 785.752 1239.7 785.315 1238.28 785.617C1237.4 785.803 1236.47 786.199 1235.47 786.802C1234.5 787.381 1233.73 787.925 1233.17 788.436L1232.36 789.164L1232.38 784.485C1233.11 783.871 1234.02 783.274 1235.1 782.695C1236.19 782.094 1237.17 781.701 1238.04 781.514C1239.82 781.137 1241.32 781.297 1242.55 781.994C1243.81 782.665 1244.57 783.756 1244.85 785.267C1245.23 787.301 1244.55 789.647 1242.83 792.302L1238.43 799.124L1248.09 796.481L1248.33 800.779L1241.77 801.88L1234.43 803.671L1234.32 800.261L1239.48 791.248C1240.52 789.479 1240.94 788.039 1240.73 786.927ZM1255.66 777.801C1257.81 777.344 1259.69 777.838 1261.3 779.283C1262.93 780.703 1264.01 782.818 1264.53 785.629C1265.18 789.175 1264.9 792.133 1263.69 794.505C1262.5 796.873 1260.53 798.35 1257.78 798.935C1255.67 799.383 1253.79 798.889 1252.14 797.453C1250.5 795.991 1249.43 793.865 1248.91 791.075C1248.29 787.74 1248.61 784.837 1249.87 782.368C1251.14 779.873 1253.08 778.351 1255.66 777.801ZM1258.21 795.638C1259.55 795.355 1260.38 794.643 1260.71 793.504C1261.06 792.361 1261 790.478 1260.51 787.856C1260.03 785.234 1259.42 783.456 1258.68 782.522C1257.94 781.568 1256.89 781.234 1255.54 781.523C1254.18 781.811 1253.29 782.523 1252.87 783.659C1252.47 784.769 1252.5 786.562 1252.96 789.037C1253.41 791.492 1254.07 793.282 1254.93 794.407C1255.78 795.512 1256.87 795.922 1258.21 795.638Z" fill="black"/>
<path d="M1353.03 811.822L1318.24 710.737L1260.53 723.372L1285.04 828.406L1353.03 811.822Z" fill="#D700B6" stroke="#F5F5F5" stroke-width="3" stroke-linecap="round"/>
<path d="M1311.21 724.651L1313.04 724.407L1314.76 731.811L1312.93 732.054L1312.53 729.288L1307.38 730.416L1303.37 731.541L1302.86 729.359L1306.69 728.67L1312.07 727.359L1311.21 724.651ZM1305.68 741.867L1308.54 740.4L1307.68 736.675L1304.52 736.534L1304.22 734.503L1308.32 734.998L1315.51 735.535L1316.36 738.278L1310.15 741.833L1306.54 744.032L1305.68 741.867ZM1314.01 737.344L1313.96 737.142L1309.44 736.775L1310.09 739.55L1314.01 737.344ZM1319.32 751.316L1312.54 752.672L1308.87 753.702L1308.05 751.953L1314.49 745.569L1311.07 746.359L1307.07 747.516L1306.62 745.567L1310.45 744.878L1317.33 743.089L1317.86 744.938L1311.31 751.331L1318.64 749.469L1319.32 751.316ZM1309.68 759.548C1309.51 758.81 1309.32 757.732 1309.11 756.313L1312.94 755.624L1319.87 753.824L1320.83 757.986C1321.16 759.388 1320.99 760.582 1320.33 761.566C1319.67 762.551 1318.6 763.216 1317.1 763.563C1315.21 764 1313.59 763.86 1312.26 763.14C1310.93 762.418 1310.07 761.221 1309.68 759.548ZM1319.02 757.814C1318.86 757.128 1318.74 756.646 1318.67 756.368L1313.63 757.37L1311.13 758.064C1311.27 758.951 1311.37 759.545 1311.44 759.847C1311.63 760.668 1312.11 761.235 1312.89 761.549C1313.66 761.873 1314.69 761.888 1315.95 761.594C1317.22 761.301 1318.11 760.85 1318.61 760.24C1319.12 759.641 1319.26 758.832 1319.02 757.814ZM1312.9 772.978L1315.76 771.511L1314.89 767.786L1311.74 767.645L1311.43 765.614L1315.54 766.109L1322.73 766.647L1323.58 769.39L1317.37 772.944L1313.76 775.143L1312.9 772.978ZM1321.22 768.456L1321.18 768.253L1316.66 767.887L1317.3 770.661L1321.22 768.456ZM1316.98 776.132C1316.3 777.22 1316.06 778.205 1316.27 779.089C1316.37 779.546 1316.56 779.885 1316.83 780.108C1317.12 780.338 1317.42 780.414 1317.76 780.337C1318.1 780.258 1318.35 780.025 1318.5 779.64C1318.66 779.252 1318.77 778.799 1318.84 778.28C1318.91 777.771 1319 777.258 1319.11 776.74C1319.23 776.22 1319.46 775.745 1319.79 775.316C1320.13 774.888 1320.6 774.605 1321.19 774.468C1322.13 774.251 1323.02 774.454 1323.88 775.077C1324.74 775.698 1325.3 776.543 1325.55 777.614C1325.66 778.102 1325.72 778.587 1325.72 779.068C1325.73 779.549 1325.68 780.026 1325.58 780.498L1323.06 779.964C1323.22 779.62 1323.33 779.172 1323.4 778.62C1323.48 778.075 1323.48 777.611 1323.39 777.227C1323.3 776.852 1323.14 776.568 1322.9 776.372C1322.67 776.184 1322.4 776.125 1322.1 776.195C1321.8 776.265 1321.57 776.493 1321.41 776.881C1321.25 777.267 1321.14 777.714 1321.08 778.222C1321.01 778.741 1320.92 779.259 1320.81 779.778C1320.72 780.304 1320.5 780.781 1320.16 781.21C1319.82 781.638 1319.36 781.921 1318.76 782.058C1317.79 782.284 1316.84 782.093 1315.92 781.485C1315.01 780.874 1314.44 780.049 1314.2 779.01C1314.02 778.23 1314.04 777.496 1314.28 776.807C1314.48 776.202 1314.67 775.762 1314.87 775.486L1315.01 775.306L1316.98 776.132ZM1294.59 733.374C1294.82 734.372 1294.72 735.233 1294.29 735.957C1293.87 736.68 1293.16 737.155 1292.17 737.383C1291.19 737.612 1290.25 737.434 1289.37 736.849C1288.5 736.262 1287.94 735.428 1287.69 734.348L1287.48 733.459L1283.54 734.57L1283.05 732.481L1286.88 731.792L1293.81 729.992L1294.59 733.374ZM1292.89 733.178L1292.71 732.414L1289.01 733.156L1289.25 734.216C1289.37 734.736 1289.64 735.096 1290.05 735.297C1290.46 735.509 1290.98 735.541 1291.61 735.394C1292.75 735.132 1293.17 734.393 1292.89 733.178ZM1284.89 740.411L1288.72 739.722L1295.65 737.922L1297 743.767L1295.3 743.982L1294.48 740.475L1291.7 741.02L1292.42 744.137L1290.73 744.348L1290.04 741.34L1289.41 741.469L1287.03 742.133L1287.91 745.905L1286.22 746.116L1284.89 740.411ZM1291.47 749.913L1291.26 749.025L1291.17 749.046L1287.16 750.171L1286.67 748.083L1290.5 747.393L1297.43 745.594L1298.21 748.976C1298.44 749.973 1298.36 750.831 1297.95 751.548C1297.55 752.265 1296.9 752.727 1296.01 752.934C1295.33 753.091 1294.67 753.057 1294.03 752.834C1293.4 752.618 1292.86 752.252 1292.4 751.734L1289.19 755.333L1287.79 753.671L1291.56 750.237C1291.53 750.166 1291.5 750.059 1291.47 749.913ZM1296.51 748.779L1296.33 748.015L1292.78 748.722L1293.03 749.781C1293.15 750.301 1293.41 750.661 1293.82 750.862C1294.23 751.074 1294.75 751.106 1295.39 750.96C1296.42 750.722 1296.79 749.995 1296.51 748.779ZM1288.77 757.109L1292.6 756.419L1299.52 754.62L1300.88 760.464L1299.17 760.679L1298.36 757.172L1295.57 757.717L1296.3 760.834L1294.61 761.045L1293.91 758.037L1293.28 758.166L1290.91 758.831L1291.78 762.602L1290.09 762.813L1288.77 757.109ZM1296.46 768.175L1296.49 768.33L1302.94 769.235L1303.38 771.4L1296.69 773.014L1292.74 774.241L1292.25 772.137L1296.32 771.277L1300.38 770.157L1294.79 769.48L1294.25 767.585L1299.1 764.623L1294.97 765.432L1290.94 766.479L1290.49 764.546L1294.33 763.888L1301.04 762.434L1302 764.822L1296.46 768.175ZM1304.79 777.317C1305.02 778.315 1304.92 779.176 1304.48 779.9C1304.06 780.622 1303.35 781.098 1302.37 781.326C1301.38 781.555 1300.44 781.377 1299.56 780.792C1298.69 780.205 1298.13 779.371 1297.88 778.29L1297.68 777.402L1293.73 778.513L1293.25 776.424L1297.08 775.734L1304 773.935L1304.79 777.317ZM1303.08 777.12L1302.9 776.357L1299.2 777.099L1299.45 778.159C1299.57 778.678 1299.83 779.039 1300.24 779.24C1300.65 779.451 1301.17 779.484 1301.81 779.337C1302.94 779.075 1303.36 778.336 1303.08 777.12ZM1295.68 787.683C1295.46 786.747 1295.56 785.892 1295.98 785.115C1296.41 784.349 1297.04 783.868 1297.88 783.674L1305.49 781.75L1306.4 783.904L1299.51 785.235C1298.78 785.403 1298.26 785.701 1297.93 786.127C1297.6 786.564 1297.52 787.135 1297.68 787.842C1297.85 788.548 1298.16 789.012 1298.63 789.232C1299.1 789.453 1299.82 789.451 1300.78 789.227L1306.85 787.626L1307.74 789.718L1300.85 791.134C1299.62 791.418 1298.53 791.238 1297.57 790.595C1296.61 789.952 1295.98 788.981 1295.68 787.683ZM1298.82 800.821L1301.69 799.354L1300.82 795.629L1297.67 795.488L1297.36 793.457L1301.47 793.952L1308.65 794.49L1309.5 797.233L1303.3 800.787L1299.69 802.986L1298.82 800.821ZM1307.15 796.299L1307.11 796.096L1302.59 795.73L1303.23 798.504L1307.15 796.299ZM1312.46 810.27L1305.68 811.626L1302.01 812.656L1301.2 810.907L1307.63 804.524L1304.22 805.314L1300.22 806.47L1299.76 804.522L1303.59 803.832L1310.47 802.043L1311 803.892L1304.45 810.285L1311.79 808.423L1312.46 810.27Z" fill="black"/>
<path d="M1388.61 803.135L1353.82 701.26L1318.24 710.737L1353.03 811.822L1388.61 803.135Z" fill="#9800E4" stroke="#F5F5F5" stroke-width="3" stroke-linecap="round"/>
<path d="M1342.03 713.69L1343.84 713.324L1346.06 720.594L1344.24 720.961L1343.66 718.228L1338.59 719.702L1334.67 721.095L1334.02 718.952L1337.79 718.005L1343.07 716.334L1342.03 713.69ZM1337.67 731.24L1340.43 729.583L1339.32 725.925L1336.16 725.998L1335.72 723.992L1339.85 724.208L1347.06 724.259L1348.09 726.938L1342.14 730.904L1338.68 733.342L1337.67 731.24ZM1345.68 726.165L1345.62 725.966L1341.08 725.906L1341.91 728.631L1345.68 726.165ZM1351.92 739.746L1345.25 741.557L1341.66 742.832L1340.72 741.143L1346.71 734.339L1343.36 735.358L1339.45 736.782L1338.86 734.869L1342.64 733.922L1349.38 731.672L1350.03 733.481L1343.93 740.302L1351.13 737.948L1351.92 739.746ZM1343.03 749.161C1342.63 747.824 1342.75 746.611 1343.4 745.522C1344.05 744.433 1345.11 743.663 1346.59 743.214C1348.27 742.702 1349.85 742.781 1351.31 743.451C1352.78 744.121 1353.74 745.201 1354.19 746.69C1354.37 747.282 1354.48 747.845 1354.52 748.379C1354.57 748.92 1354.58 749.315 1354.53 749.564L1354.45 749.921L1352.06 749.68C1352.17 749.312 1352.23 748.841 1352.24 748.268C1352.27 747.692 1352.22 747.205 1352.1 746.807C1351.85 745.98 1351.36 745.405 1350.62 745.082C1349.89 744.759 1349.04 744.743 1348.08 745.035C1346.79 745.429 1345.85 745.97 1345.27 746.66C1344.69 747.36 1344.53 748.133 1344.78 748.98C1344.95 749.531 1345.19 750.028 1345.49 750.471L1347.86 749.75L1347.26 747.776L1348.85 747.459L1349.97 751.132L1347.44 751.753L1344.82 752.665C1343.92 751.298 1343.33 750.13 1343.03 749.161ZM1346 758.891C1345.59 757.555 1345.71 756.342 1346.36 755.253C1347.01 754.163 1348.07 753.394 1349.55 752.944C1351.24 752.432 1352.81 752.511 1354.28 753.181C1355.74 753.851 1356.7 754.931 1357.15 756.421C1357.33 757.013 1357.44 757.576 1357.48 758.11C1357.54 758.651 1357.54 759.046 1357.49 759.294L1357.42 759.651L1355.02 759.41C1355.13 759.042 1355.19 758.572 1355.21 757.999C1355.23 757.422 1355.19 756.935 1355.06 756.537C1354.81 755.711 1354.32 755.136 1353.59 754.813C1352.85 754.489 1352 754.474 1351.05 754.765C1349.75 755.159 1348.81 755.701 1348.23 756.39C1347.65 757.09 1347.49 757.864 1347.75 758.71C1347.92 759.261 1348.15 759.759 1348.45 760.202L1350.83 759.481L1350.22 757.506L1351.82 757.19L1352.94 760.863L1350.4 761.483L1347.78 762.395C1346.89 761.029 1346.29 759.861 1346 758.891ZM1349.81 771.089L1352.57 769.432L1351.45 765.774L1348.3 765.846L1347.86 763.841L1351.99 764.057L1359.19 764.108L1360.23 766.787L1354.28 770.752L1350.82 773.191L1349.81 771.089ZM1357.82 766.014L1357.76 765.815L1353.22 765.755L1354.05 768.479L1357.82 766.014Z" fill="black"/>
<path d="M697.597 928.702L715.781 843.411L672.296 834.724L649.368 916.856L697.597 928.702Z" fill="#9800E4" stroke="#F5F5F5" stroke-width="3" stroke-linecap="round"/>
<path d="M698.105 853.317L699.848 853.933L698.005 861.306L696.262 860.69L697.17 858.048L692.063 856.708L687.98 855.888L688.523 853.714L692.249 854.841L697.636 856.119L698.105 853.317ZM685.336 866.134L688.554 866.128L689.481 862.418L686.737 860.86L687.389 858.912L690.82 861.218L696.976 864.963L696.483 867.792L689.338 868.137L685.119 868.454L685.336 866.134ZM694.814 865.892L694.864 865.69L691.006 863.31L690.316 866.073L694.814 865.892ZM693.179 880.747L686.523 878.873L682.785 878.122L682.855 876.193L691.494 873.434L688.094 872.586L684.003 871.797L684.488 869.856L688.214 870.983L695.154 872.516L694.781 874.402L686.037 877.119L693.419 878.795L693.179 880.747ZM680.708 884.257C681.046 882.901 681.775 881.923 682.892 881.322C684.01 880.721 685.319 880.608 686.82 880.982C688.528 881.408 689.837 882.284 690.748 883.611C691.659 884.937 691.925 886.356 691.548 887.867C691.398 888.467 691.202 889.007 690.962 889.485C690.729 889.977 690.528 890.317 690.36 890.506L690.112 890.774L688.179 889.335C688.464 889.077 688.76 888.705 689.068 888.221C689.386 887.74 689.595 887.298 689.696 886.894C689.906 886.056 689.779 885.31 689.316 884.655C688.853 884.001 688.135 883.553 687.162 883.31C685.847 882.982 684.763 882.965 683.909 883.258C683.053 883.561 682.517 884.142 682.303 885.001C682.163 885.56 682.109 886.107 682.14 886.642L684.546 887.242L685.047 885.24L686.576 885.786L685.645 889.511L683.149 888.741L680.436 888.18C680.371 886.547 680.462 885.24 680.708 884.257ZM678.241 894.125C678.58 892.769 679.308 891.791 680.426 891.19C681.544 890.59 682.853 890.476 684.353 890.851C686.061 891.277 687.37 892.153 688.281 893.479C689.192 894.806 689.459 896.224 689.081 897.735C688.931 898.335 688.736 898.875 688.495 899.354C688.262 899.845 688.062 900.185 687.894 900.374L687.645 900.642L685.713 899.204C685.997 898.945 686.293 898.574 686.601 898.09C686.919 897.608 687.129 897.166 687.23 896.762C687.439 895.924 687.312 895.178 686.849 894.524C686.386 893.87 685.668 893.421 684.695 893.179C683.381 892.851 682.297 892.833 681.443 893.126C680.586 893.429 680.051 894.01 679.836 894.869C679.697 895.428 679.642 895.975 679.673 896.51L682.08 897.111L682.58 895.108L684.109 895.654L683.178 899.38L680.683 898.609L677.97 898.048C677.905 896.416 677.995 895.108 678.241 894.125ZM675.235 906.547L678.453 906.541L679.38 902.831L676.636 901.273L677.288 899.325L680.719 901.631L686.874 905.376L686.382 908.205L679.237 908.55L675.018 908.867L675.235 906.547ZM684.713 906.305L684.763 906.103L680.905 903.723L680.215 906.486L684.713 906.305Z" fill="black"/>
<path d="M514.169 317.452L474.638 338.775L503.891 391.686L545.004 371.943L514.169 317.452Z" fill="#9800E4" stroke="#F5F5F5" stroke-width="3" stroke-linecap="round"/>
<path d="M500.039 330.125L501.549 329.545L504.518 335.495L503.008 336.075L502.109 333.802L497.948 335.811L494.765 337.584L493.889 335.83L497.01 334.464L501.321 332.255L500.039 330.125ZM498.836 345.899L500.974 344.068L499.48 341.075L496.767 341.596L496.092 339.931L499.688 339.517L505.914 338.512L507.196 340.673L502.639 344.96L500.012 347.566L498.836 345.899ZM505.005 340.357L504.923 340.194L501.002 340.801L502.115 343.031L505.005 340.357ZM512.37 351.165L506.875 353.698L503.961 355.321L502.91 353.999L507.088 347.258L504.343 348.624L501.172 350.422L500.391 348.857L503.511 347.49L509 344.569L509.826 346.035L505.554 352.807L511.42 349.73L512.37 351.165ZM506.07 360.581C505.524 359.487 505.452 358.422 505.854 357.388C506.255 356.354 507.062 355.535 508.273 354.932C509.652 354.246 511.022 354.085 512.383 354.45C513.744 354.815 514.728 355.607 515.337 356.826C515.578 357.311 515.755 357.78 515.868 358.235C515.993 358.694 516.053 359.035 516.049 359.256L516.036 359.575L513.931 359.716C513.973 359.382 513.959 358.967 513.888 358.47C513.826 357.969 513.714 357.556 513.551 357.231C513.214 356.554 512.705 356.13 512.024 355.958C511.344 355.786 510.611 355.895 509.826 356.286C508.764 356.815 508.033 357.419 507.632 358.098C507.234 358.786 507.209 359.476 507.555 360.17C507.78 360.621 508.055 361.015 508.38 361.354L510.323 360.386L509.516 358.771L510.845 358.266L512.345 361.272L510.246 362.176L508.122 363.344C507.15 362.295 506.466 361.374 506.07 360.581ZM510.044 368.544C509.498 367.45 509.426 366.386 509.828 365.352C510.23 364.318 511.037 363.499 512.248 362.896C513.627 362.209 514.996 362.049 516.357 362.414C517.718 362.779 518.703 363.571 519.311 364.79C519.553 365.274 519.73 365.744 519.842 366.199C519.967 366.658 520.027 366.998 520.023 367.219L520.01 367.539L517.906 367.679C517.948 367.346 517.934 366.931 517.863 366.434C517.801 365.933 517.688 365.52 517.526 365.194C517.188 364.518 516.679 364.093 515.999 363.921C515.318 363.749 514.585 363.859 513.8 364.25C512.739 364.778 512.008 365.382 511.606 366.062C511.209 366.75 511.183 367.44 511.529 368.133C511.754 368.584 512.03 368.979 512.355 369.317L514.297 368.35L513.491 366.734L514.819 366.229L516.32 369.236L514.221 370.14L512.096 371.307C511.124 370.259 510.44 369.338 510.044 368.544ZM515.113 378.512L517.251 376.682L515.757 373.688L513.044 374.209L512.369 372.544L515.965 372.13L522.191 371.125L523.473 373.286L518.916 377.573L516.289 380.179L515.113 378.512ZM521.281 372.97L521.2 372.807L517.279 373.415L518.392 375.644L521.281 372.97Z" fill="black"/>
<path d="M1145 192.2C1171.39 192.2 1192.8 213.766 1192.8 240.394C1192.8 267.022 1171.39 288.588 1145 288.588C1118.61 288.588 1097.2 267.022 1097.2 240.394C1097.2 213.766 1118.61 192.2 1145 192.2Z" fill="#9800E4" stroke="#626262" stroke-width="3"/>
<path d="M1117.8 237.532L1117.98 235.692H1125.58L1125.4 237.532L1122.62 237.292L1122.55 242.572L1122.74 246.732H1120.5L1120.7 242.844L1120.63 237.308L1117.8 237.532ZM1133.33 246.812L1132.54 243.692H1128.72L1127.87 246.732L1125.82 246.572L1127.23 242.684L1129.37 235.804L1132.24 235.596L1134.3 242.444L1135.63 246.46L1133.33 246.812ZM1130.8 237.676H1130.59L1129.21 241.996H1132.06L1130.8 237.676ZM1145.61 235.66L1145.4 242.572L1145.57 246.38L1143.69 246.78L1138.92 239.068V242.572L1139.14 246.732H1137.14L1137.33 242.844L1137.14 235.74L1139.06 235.644L1143.81 243.468L1143.65 235.9L1145.61 235.66ZM1152.03 246.908C1150.63 246.908 1149.51 246.438 1148.65 245.5C1147.8 244.561 1147.37 243.318 1147.37 241.772C1147.37 240.012 1147.91 238.529 1148.97 237.324C1150.04 236.118 1151.35 235.516 1152.91 235.516C1153.53 235.516 1154.1 235.574 1154.62 235.692C1155.16 235.798 1155.53 235.91 1155.76 236.028L1156.08 236.204L1155.15 238.428C1154.83 238.214 1154.4 238.017 1153.85 237.836C1153.31 237.644 1152.83 237.548 1152.41 237.548C1151.55 237.548 1150.86 237.852 1150.33 238.46C1149.81 239.068 1149.55 239.873 1149.55 240.876C1149.55 242.23 1149.8 243.286 1150.29 244.044C1150.79 244.801 1151.48 245.18 1152.37 245.18C1152.94 245.18 1153.49 245.1 1154 244.94V242.46H1151.93L1152.09 240.844H1155.93L1155.79 243.452L1155.9 246.22C1154.33 246.678 1153.04 246.908 1152.03 246.908ZM1162.2 246.908C1160.8 246.908 1159.68 246.438 1158.83 245.5C1157.97 244.561 1157.55 243.318 1157.55 241.772C1157.55 240.012 1158.08 238.529 1159.15 237.324C1160.21 236.118 1161.52 235.516 1163.08 235.516C1163.7 235.516 1164.27 235.574 1164.79 235.692C1165.33 235.798 1165.71 235.91 1165.93 236.028L1166.25 236.204L1165.32 238.428C1165 238.214 1164.57 238.017 1164.03 237.836C1163.48 237.644 1163 237.548 1162.59 237.548C1161.72 237.548 1161.03 237.852 1160.51 238.46C1159.98 239.068 1159.72 239.873 1159.72 240.876C1159.72 242.23 1159.97 243.286 1160.46 244.044C1160.96 244.801 1161.65 245.18 1162.54 245.18C1163.11 245.18 1163.66 245.1 1164.17 244.94V242.46H1162.11L1162.27 240.844H1166.11L1165.96 243.452L1166.07 246.22C1164.51 246.678 1163.21 246.908 1162.2 246.908ZM1174.98 246.812L1174.2 243.692H1170.37L1169.53 246.732L1167.48 246.572L1168.89 242.684L1171.03 235.804L1173.89 235.596L1175.96 242.444L1177.29 246.46L1174.98 246.812ZM1172.45 237.676H1172.25L1170.87 241.996H1173.72L1172.45 237.676Z" fill="black"/>
</g>
<defs>
<filter id="filter0_d_61_133" x="0" y="0" width="2008" height="1088" filterUnits="userSpaceOnUse" color-interpolation-filters="sRGB">
<feFlood flood-opacity="0" result="BackgroundImageFix"/>
<feColorMatrix in="SourceAlpha" type="matrix" values="0 0 0 0 0 0 0 0 0 0 0 0 0 0 0 0 0 0 127 0" result="hardAlpha"/>
<feOffset dy="4"/>
<feGaussianBlur stdDeviation="2"/>
<feComposite in2="hardAlpha" operator="out"/>
<feColorMatrix type="matrix" values="0 0 0 0 0 0 0 0 0 0 0 0 0 0 0 0 0 0 0.25 0"/>
<feBlend mode="normal" in2="BackgroundImageFix" result="effect1_dropShadow_61_133"/>
<feBlend mode="normal" in="SourceGraphic" in2="effect1_dropShadow_61_133" result="shape"/>
</filter>
</defs>
</svg>
